<?xml version="1.0" encoding="utf-8" standalone="no"?>
<!DOCTYPE svg PUBLIC "-//W3C//DTD SVG 1.1//EN"
  "http://www.w3.org/Graphics/SVG/1.1/DTD/svg11.dtd">
<!-- Created with matplotlib (https://matplotlib.org/) -->
<svg preserveAspectRatio="none" height="253.872pt" version="1.1" viewBox="0 0 325.44 253.872" width="325.44pt" xmlns="http://www.w3.org/2000/svg" xmlns:xlink="http://www.w3.org/1999/xlink">
 <metadata>
  <rdf:RDF xmlns:cc="http://creativecommons.org/ns#" xmlns:dc="http://purl.org/dc/elements/1.1/" xmlns:rdf="http://www.w3.org/1999/02/22-rdf-syntax-ns#">
   <cc:Work>
    <dc:type rdf:resource="http://purl.org/dc/dcmitype/StillImage"/>
    <dc:date>2021-04-02T05:24:44.890622</dc:date>
    <dc:format>image/svg+xml</dc:format>
    <dc:creator>
     <cc:Agent>
      <dc:title>Matplotlib v3.3.2, https://matplotlib.org/</dc:title>
     </cc:Agent>
    </dc:creator>
   </cc:Work>
  </rdf:RDF>
 </metadata>
 <defs>
  <style type="text/css">*{stroke-linecap:butt;stroke-linejoin:round;}</style>
 </defs>
 <g id="figure_1">
  <g id="patch_1">
   <path d="M 0 253.872 
L 325.44 253.872 
L 325.44 0 
L 0 0 
z
" style="fill:none;"/>
  </g>
  <g id="axes_1">
   <g id="PolyCollection_1">
    <path clip-path="url(#pf25f15a577)" d="M 0.392727 244.62129 
L 0.392727 253.872 
L 12.048188 253.872 
L 12.048188 253.872 
L 12.281298 253.872 
L 14.61239 253.872 
L 24.752641 253.872 
L 31.163145 253.872 
L 31.163145 253.872 
L 32.911464 253.872 
L 36.058438 253.872 
L 36.641211 253.872 
L 48.996 253.872 
L 54.707176 253.872 
L 54.707176 253.872 
L 58.786588 253.872 
L 58.953094 253.872 
L 60.418352 253.872 
L 63.448772 253.872 
L 73.23936 253.872 
L 76.735998 253.872 
L 79.06709 253.872 
L 79.06709 253.872 
L 83.263056 253.872 
L 84.778266 253.872 
L 85.710703 253.872 
L 93.752971 253.872 
L 93.752971 253.872 
L 97.599273 253.872 
L 109.021625 253.872 
L 109.604398 253.872 
L 112.1686 253.872 
L 113.267543 253.872 
L 116.364566 253.872 
L 117.413557 253.872 
L 117.413557 253.872 
L 121.842633 253.872 
L 122.77507 253.872 
L 125.022908 253.872 
L 131.982884 253.872 
L 133.314937 253.872 
L 133.381539 253.872 
L 136.645068 253.872 
L 136.878178 253.872 
L 137.893868 253.872 
L 139.908597 253.872 
L 140.49137 253.872 
L 140.841034 253.872 
L 145.619773 253.872 
L 146.202546 253.872 
L 146.78532 253.872 
L 148.999857 253.872 
L 149.06646 253.872 
L 150.015547 253.872 
L 150.981286 253.872 
L 151.913722 253.872 
L 153.079269 253.872 
L 153.312378 253.872 
L 153.312378 253.872 
L 153.312378 253.872 
L 157.741453 253.872 
L 159.256663 253.872 
L 161.004982 253.872 
L 161.004982 253.872 
L 161.621057 253.872 
L 161.70431 253.872 
L 162.287083 253.872 
L 163.918847 253.872 
L 164.118655 253.872 
L 164.268511 253.872 
L 164.385066 253.872 
L 167.53204 253.872 
L 167.998259 253.872 
L 170.56246 253.872 
L 170.679015 253.872 
L 171.494897 253.872 
L 171.494897 253.872 
L 171.611452 253.872 
L 173.59288 253.872 
L 176.157082 253.872 
L 176.856409 253.872 
L 176.856409 253.872 
L 176.972964 253.872 
L 179.836877 253.872 
L 182.101367 253.872 
L 183.69983 253.872 
L 183.69983 253.872 
L 185.065184 253.872 
L 185.364896 253.872 
L 185.997621 253.872 
L 186.064224 253.872 
L 186.413887 253.872 
L 188.278761 253.872 
L 188.362015 253.872 
L 188.395316 253.872 
L 188.74498 253.872 
L 191.309181 253.872 
L 191.7754 253.872 
L 192.707837 253.872 
L 192.707837 253.872 
L 194.57271 253.872 
L 194.922374 253.872 
L 195.854811 253.872 
L 196.104571 253.872 
L 200.866659 253.872 
L 201.565987 253.872 
L 202.015555 253.872 
L 202.015555 253.872 
L 204.013634 253.872 
L 204.363298 253.872 
L 204.779564 253.872 
L 206.344726 253.872 
L 206.577835 253.872 
L 207.543574 253.872 
L 209.841364 253.872 
L 210.074474 253.872 
L 210.474089 253.872 
L 212.52212 253.872 
L 212.52212 253.872 
L 212.605374 253.872 
L 212.638675 253.872 
L 213.104894 253.872 
L 213.338003 253.872 
L 213.687667 253.872 
L 214.153885 253.872 
L 214.670055 253.872 
L 215.55254 253.872 
L 216.601532 253.872 
L 219.165733 253.872 
L 219.748506 253.872 
L 219.981616 253.872 
L 220.331279 253.872 
L 220.331279 253.872 
L 223.12859 253.872 
L 223.12859 253.872 
L 224.993464 253.872 
L 225.110019 253.872 
L 225.925901 253.872 
L 227.124748 253.872 
L 227.557665 253.872 
L 228.556705 253.872 
L 229.405889 253.872 
L 230.70464 253.872 
L 230.821195 253.872 
L 230.937749 253.872 
L 233.968169 253.872 
L 234.201278 253.872 
L 234.201278 253.872 
L 235.350174 253.872 
L 235.649886 253.872 
L 236.76548 253.872 
L 236.882034 253.872 
L 237.115144 253.872 
L 237.980978 253.872 
L 238.980017 253.872 
L 238.980017 253.872 
L 239.912454 253.872 
L 240.495227 253.872 
L 241.31111 253.872 
L 242.010437 253.872 
L 242.942874 253.872 
L 243.175983 253.872 
L 243.525647 253.872 
L 243.525647 253.872 
L 243.908612 253.872 
L 244.10842 253.872 
L 244.224975 253.872 
L 246.439512 253.872 
L 246.905731 253.872 
L 247.255395 253.872 
L 249.120269 253.872 
L 249.236823 253.872 
L 249.469932 253.872 
L 250.285815 253.872 
L 252.267243 253.872 
L 253.432789 253.872 
L 253.899008 253.872 
L 255.064554 253.872 
L 255.297663 253.872 
L 255.414218 253.872 
L 256.812873 253.872 
L 258.561192 253.872 
L 258.977459 253.872 
L 259.543581 253.872 
L 259.593533 253.872 
L 259.610184 253.872 
L 261.241948 253.872 
L 261.458407 253.872 
L 264.738587 253.872 
L 265.32136 253.872 
L 265.554469 253.872 
L 265.671023 253.872 
L 267.252836 253.872 
L 267.286137 253.872 
L 267.652452 253.872 
L 267.885561 253.872 
L 268.584889 253.872 
L 268.584889 253.872 
L 270.200003 253.872 
L 270.915981 253.872 
L 271.14909 253.872 
L 271.14909 253.872 
L 271.848418 253.872 
L 273.297025 253.872 
L 273.829846 253.872 
L 273.829846 253.872 
L 274.062955 253.872 
L 274.762283 253.872 
L 275.927829 253.872 
L 276.044384 253.872 
L 277.326485 253.872 
L 279.307913 253.872 
L 279.541022 253.872 
L 279.657577 253.872 
L 280.007241 253.872 
L 280.107145 253.872 
L 282.454887 253.872 
L 282.804551 253.872 
L 282.921106 253.872 
L 283.620434 253.872 
L 284.436316 253.872 
L 285.485307 253.872 
L 285.818321 253.872 
L 285.834971 253.872 
L 286.184635 253.872 
L 286.767408 253.872 
L 287.233627 253.872 
L 287.699845 253.872 
L 288.282618 253.872 
L 289.0985 253.872 
L 289.398212 253.872 
L 289.914383 253.872 
L 290.09754 253.872 
L 291.662702 253.872 
L 292.12892 253.872 
L 292.245475 253.872 
L 292.362029 253.872 
L 293.177912 253.872 
L 294.443362 253.872 
L 295.275895 253.872 
L 295.742113 253.872 
L 296.324886 253.872 
L 297.723542 253.872 
L 298.18976 253.872 
L 298.306315 253.872 
L 299.122197 253.872 
L 299.122197 253.872 
L 300.687359 253.872 
L 300.870516 253.872 
L 301.569844 253.872 
L 302.102665 253.872 
L 303.218259 253.872 
L 303.684477 253.872 
L 304.2506 253.872 
L 304.350504 253.872 
L 305.998919 253.872 
L 306.581692 253.872 
L 307.164465 253.872 
L 308.096902 253.872 
L 308.446566 253.872 
L 309.728667 253.872 
L 310.178234 253.872 
L 310.31144 253.872 
L 312.525977 253.872 
L 312.642532 253.872 
L 313.34186 253.872 
L 313.574969 253.872 
L 314.041187 253.872 
L 314.041187 253.872 
L 314.207694 253.872 
L 314.740515 253.872 
L 314.973624 253.872 
L 316.13917 253.872 
L 316.255725 253.872 
L 316.372279 253.872 
L 316.488834 253.872 
L 316.838498 253.872 
L 317.371319 253.872 
L 318.686721 253.872 
L 318.686721 253.872 
L 320.568246 253.872 
L 320.967861 253.872 
L 323.365556 253.872 
L 324.181438 253.872 
L 325.047273 253.872 
L 325.047273 86.915469 
L 325.047273 86.915469 
L 324.181438 76.689928 
L 323.365556 67.488839 
L 320.967861 72.742105 
L 320.568246 75.782721 
L 318.686721 63.601441 
L 318.686721 63.601441 
L 317.371319 62.100265 
L 316.838498 51.734034 
L 316.488834 53.559935 
L 316.372279 51.989135 
L 316.255725 60.657543 
L 316.13917 63.607823 
L 314.973624 49.463049 
L 314.740515 47.694371 
L 314.207694 49.284558 
L 314.041187 46.074373 
L 314.041187 46.074373 
L 313.574969 54.404207 
L 313.34186 53.900842 
L 312.642532 47.456735 
L 312.525977 48.638152 
L 310.31144 45.152865 
L 310.178234 48.466378 
L 309.728667 42.921091 
L 308.446566 42.066811 
L 308.096902 37.052047 
L 307.164465 38.002124 
L 306.581692 26.508694 
L 305.998919 44.271866 
L 304.350504 38.678889 
L 304.2506 37.294444 
L 303.684477 35.76293 
L 303.218259 26.678849 
L 302.102665 32.289818 
L 301.569844 15.747012 
L 300.870516 0.432 
L 300.687359 6.333123 
L 299.122197 23.659808 
L 299.122197 23.659808 
L 298.306315 23.539668 
L 298.18976 25.028985 
L 297.723542 22.79446 
L 296.324886 23.699451 
L 295.742113 25.631167 
L 295.275895 20.036582 
L 294.443362 20.071299 
L 293.177912 29.846352 
L 292.362029 32.063741 
L 292.245475 30.159447 
L 292.12892 29.129831 
L 291.662702 53.635061 
L 290.09754 53.853522 
L 289.914383 55.300294 
L 289.398212 46.049949 
L 289.0985 45.356593 
L 288.282618 48.61363 
L 287.699845 43.789915 
L 287.233627 42.066625 
L 286.767408 45.440533 
L 286.184635 47.887251 
L 285.834971 45.24746 
L 285.818321 41.863058 
L 285.485307 44.050888 
L 284.436316 46.577138 
L 283.620434 46.691984 
L 282.921106 42.711285 
L 282.804551 42.952325 
L 282.454887 45.139173 
L 280.107145 45.146631 
L 280.007241 47.890211 
L 279.657577 46.493551 
L 279.541022 46.181247 
L 279.307913 20.857458 
L 277.326485 32.31327 
L 276.044384 52.735955 
L 275.927829 59.872072 
L 274.762283 56.843851 
L 274.062955 51.168982 
L 273.829846 51.003875 
L 273.829846 51.003875 
L 273.297025 57.970642 
L 271.848418 58.864137 
L 271.14909 52.361148 
L 271.14909 52.361148 
L 270.915981 59.448962 
L 270.200003 61.021065 
L 268.584889 59.146322 
L 268.584889 59.146322 
L 267.885561 76.615706 
L 267.652452 74.318915 
L 267.286137 70.151999 
L 267.252836 76.876579 
L 265.671023 75.107242 
L 265.554469 75.025406 
L 265.32136 74.24117 
L 264.738587 71.355286 
L 261.458407 74.167091 
L 261.241948 78.199263 
L 259.610184 81.441747 
L 259.593533 79.223257 
L 259.543581 76.617489 
L 258.977459 76.594743 
L 258.561192 79.693801 
L 256.812873 105.146436 
L 255.414218 98.082329 
L 255.297663 116.937148 
L 255.064554 104.099282 
L 253.899008 110.505677 
L 253.432789 106.900553 
L 252.267243 118.916072 
L 250.285815 105.207767 
L 249.469932 93.863184 
L 249.236823 92.458239 
L 249.120269 90.026835 
L 247.255395 81.418671 
L 246.905731 83.115184 
L 246.439512 78.974968 
L 244.224975 77.655221 
L 244.10842 77.658216 
L 243.908612 76.904286 
L 243.525647 72.885636 
L 243.525647 72.885636 
L 243.175983 70.718012 
L 242.942874 78.410676 
L 242.010437 76.026264 
L 241.31111 72.30501 
L 240.495227 73.931852 
L 239.912454 77.794735 
L 238.980017 75.054499 
L 238.980017 75.054499 
L 237.980978 71.467825 
L 237.115144 73.316126 
L 236.882034 80.376928 
L 236.76548 72.171203 
L 235.649886 83.872234 
L 235.350174 77.393584 
L 234.201278 96.103488 
L 234.201278 96.103488 
L 233.968169 107.459841 
L 230.937749 109.291261 
L 230.821195 105.498707 
L 230.70464 109.334319 
L 229.405889 113.074113 
L 228.556705 108.631295 
L 227.557665 118.97098 
L 227.124748 118.831436 
L 225.925901 111.019267 
L 225.110019 120.365891 
L 224.993464 112.824334 
L 223.12859 100.541871 
L 223.12859 100.541871 
L 220.331279 125.115059 
L 220.331279 125.115059 
L 219.981616 106.938388 
L 219.748506 109.669201 
L 219.165733 110.439493 
L 216.601532 101.304619 
L 215.55254 100.980722 
L 214.670055 109.791216 
L 214.153885 93.311446 
L 213.687667 100.000649 
L 213.338003 98.214866 
L 213.104894 91.142386 
L 212.638675 97.713088 
L 212.605374 103.739752 
L 212.52212 108.233111 
L 212.52212 108.233111 
L 210.474089 102.097645 
L 210.074474 111.965408 
L 209.841364 108.82539 
L 207.543574 118.703658 
L 206.577835 125.266396 
L 206.344726 128.062349 
L 204.779564 133.874462 
L 204.363298 134.647597 
L 204.013634 142.787697 
L 202.015555 123.67436 
L 202.015555 123.67436 
L 201.565987 130.38589 
L 200.866659 143.386206 
L 196.104571 146.631508 
L 195.854811 149.610318 
L 194.922374 144.878826 
L 194.57271 138.847631 
L 192.707837 136.694942 
L 192.707837 136.694942 
L 191.7754 133.081476 
L 191.309181 137.987053 
L 188.74498 126.123745 
L 188.395316 130.667589 
L 188.362015 126.000784 
L 188.278761 131.310994 
L 186.413887 132.185891 
L 186.064224 130.240343 
L 185.997621 143.766226 
L 185.364896 147.214598 
L 185.065184 149.345644 
L 183.69983 157.056556 
L 183.69983 157.056556 
L 182.101367 153.951588 
L 179.836877 160.11895 
L 176.972964 144.567569 
L 176.856409 155.59835 
L 176.856409 155.59835 
L 176.157082 163.755764 
L 173.59288 160.032224 
L 171.611452 162.677564 
L 171.494897 167.430755 
L 171.494897 167.430755 
L 170.679015 163.747209 
L 170.56246 162.975776 
L 167.998259 160.554117 
L 167.53204 164.514388 
L 164.385066 170.396453 
L 164.268511 164.972433 
L 164.118655 166.785636 
L 163.918847 163.372672 
L 162.287083 166.10501 
L 161.70431 175.448011 
L 161.621057 171.284879 
L 161.004982 171.487274 
L 161.004982 171.487274 
L 159.256663 169.906445 
L 157.741453 174.533179 
L 153.312378 179.528883 
L 153.312378 179.528883 
L 153.312378 179.528883 
L 153.079269 166.296501 
L 151.913722 177.247463 
L 150.981286 169.694752 
L 150.015547 172.084578 
L 149.06646 173.28853 
L 148.999857 173.122747 
L 146.78532 174.71374 
L 146.202546 175.431672 
L 145.619773 178.27808 
L 140.841034 183.932637 
L 140.49137 177.597199 
L 139.908597 179.075995 
L 137.893868 181.581949 
L 136.878178 200.091374 
L 136.645068 198.61596 
L 133.381539 191.89861 
L 133.314937 194.143871 
L 131.982884 196.965993 
L 125.022908 196.132112 
L 122.77507 195.312255 
L 121.842633 196.921252 
L 117.413557 189.692105 
L 117.413557 189.692105 
L 116.364566 195.846108 
L 113.267543 197.066219 
L 112.1686 198.594106 
L 109.604398 198.277629 
L 109.021625 204.220108 
L 97.599273 222.902414 
L 93.752971 221.946099 
L 93.752971 221.946099 
L 85.710703 229.872346 
L 84.778266 228.731154 
L 83.263056 230.145693 
L 79.06709 228.886596 
L 79.06709 228.886596 
L 76.735998 232.72084 
L 73.23936 231.863432 
L 63.448772 236.187514 
L 60.418352 238.634763 
L 58.953094 235.999005 
L 58.786588 233.294422 
L 54.707176 233.170886 
L 54.707176 233.170886 
L 48.996 230.667861 
L 36.641211 232.654483 
L 36.058438 229.141721 
L 32.911464 214.064829 
L 31.163145 227.052184 
L 31.163145 227.052184 
L 24.752641 217.003183 
L 14.61239 242.510486 
L 12.281298 242.300707 
L 12.048188 230.208434 
L 12.048188 230.208434 
L 0.392727 244.62129 
z
" style="fill:#606060;"/>
   </g>
  </g>
 </g>
 <defs>
  <clipPath id="pf25f15a577">
   <rect height="266.112" width="357.12" x="-15.84" y="-12.24"/>
  </clipPath>
 </defs>
</svg>
