<?xml version="1.0" encoding="utf-8" standalone="no"?>
<!DOCTYPE svg PUBLIC "-//W3C//DTD SVG 1.1//EN"
  "http://www.w3.org/Graphics/SVG/1.1/DTD/svg11.dtd">
<!-- Created with matplotlib (https://matplotlib.org/) -->
<svg preserveAspectRatio="none" height="253.872pt" version="1.1" viewBox="0 0 325.44 253.872" width="325.44pt" xmlns="http://www.w3.org/2000/svg" xmlns:xlink="http://www.w3.org/1999/xlink">
 <metadata>
  <rdf:RDF xmlns:cc="http://creativecommons.org/ns#" xmlns:dc="http://purl.org/dc/elements/1.1/" xmlns:rdf="http://www.w3.org/1999/02/22-rdf-syntax-ns#">
   <cc:Work>
    <dc:type rdf:resource="http://purl.org/dc/dcmitype/StillImage"/>
    <dc:date>2021-04-02T04:59:11.695128</dc:date>
    <dc:format>image/svg+xml</dc:format>
    <dc:creator>
     <cc:Agent>
      <dc:title>Matplotlib v3.3.2, https://matplotlib.org/</dc:title>
     </cc:Agent>
    </dc:creator>
   </cc:Work>
  </rdf:RDF>
 </metadata>
 <defs>
  <style type="text/css">*{stroke-linecap:butt;stroke-linejoin:round;}</style>
 </defs>
 <g id="figure_1">
  <g id="patch_1">
   <path d="M 0 253.872 
L 325.44 253.872 
L 325.44 0 
L 0 0 
z
" style="fill:none;"/>
  </g>
  <g id="axes_1">
   <g id="PolyCollection_1">
    <path clip-path="url(#pee15c94a30)" d="M 0.392727 231.945708 
L 0.392727 253.872 
L 12.048188 253.872 
L 12.048188 253.872 
L 12.281298 253.872 
L 14.61239 253.872 
L 24.752641 253.872 
L 31.163145 253.872 
L 31.163145 253.872 
L 32.911464 253.872 
L 36.058438 253.872 
L 36.641211 253.872 
L 48.996 253.872 
L 54.707176 253.872 
L 54.707176 253.872 
L 58.786588 253.872 
L 58.953094 253.872 
L 60.418352 253.872 
L 63.448772 253.872 
L 73.23936 253.872 
L 76.735998 253.872 
L 79.06709 253.872 
L 79.06709 253.872 
L 83.263056 253.872 
L 84.778266 253.872 
L 85.710703 253.872 
L 93.752971 253.872 
L 93.752971 253.872 
L 97.599273 253.872 
L 109.021625 253.872 
L 109.604398 253.872 
L 112.1686 253.872 
L 113.267543 253.872 
L 116.364566 253.872 
L 117.413557 253.872 
L 117.413557 253.872 
L 121.842633 253.872 
L 122.77507 253.872 
L 125.022908 253.872 
L 131.982884 253.872 
L 133.314937 253.872 
L 133.381539 253.872 
L 136.645068 253.872 
L 136.878178 253.872 
L 137.893868 253.872 
L 139.908597 253.872 
L 140.49137 253.872 
L 140.841034 253.872 
L 145.619773 253.872 
L 146.202546 253.872 
L 146.78532 253.872 
L 148.999857 253.872 
L 149.06646 253.872 
L 150.015547 253.872 
L 150.981286 253.872 
L 151.913722 253.872 
L 153.079269 253.872 
L 153.312378 253.872 
L 153.312378 253.872 
L 153.312378 253.872 
L 157.741453 253.872 
L 159.256663 253.872 
L 161.004982 253.872 
L 161.004982 253.872 
L 161.621057 253.872 
L 161.70431 253.872 
L 162.287083 253.872 
L 163.918847 253.872 
L 164.118655 253.872 
L 164.268511 253.872 
L 164.385066 253.872 
L 167.53204 253.872 
L 167.998259 253.872 
L 170.56246 253.872 
L 170.679015 253.872 
L 171.494897 253.872 
L 171.494897 253.872 
L 171.611452 253.872 
L 173.59288 253.872 
L 176.157082 253.872 
L 176.856409 253.872 
L 176.856409 253.872 
L 176.972964 253.872 
L 179.836877 253.872 
L 182.101367 253.872 
L 183.69983 253.872 
L 183.69983 253.872 
L 185.065184 253.872 
L 185.364896 253.872 
L 185.997621 253.872 
L 186.064224 253.872 
L 186.413887 253.872 
L 188.278761 253.872 
L 188.362015 253.872 
L 188.395316 253.872 
L 188.74498 253.872 
L 191.309181 253.872 
L 191.7754 253.872 
L 192.707837 253.872 
L 192.707837 253.872 
L 194.57271 253.872 
L 194.922374 253.872 
L 195.854811 253.872 
L 196.104571 253.872 
L 200.866659 253.872 
L 201.565987 253.872 
L 202.015555 253.872 
L 202.015555 253.872 
L 204.013634 253.872 
L 204.363298 253.872 
L 204.779564 253.872 
L 206.344726 253.872 
L 206.577835 253.872 
L 207.543574 253.872 
L 209.841364 253.872 
L 210.074474 253.872 
L 210.474089 253.872 
L 212.52212 253.872 
L 212.52212 253.872 
L 212.605374 253.872 
L 212.638675 253.872 
L 213.104894 253.872 
L 213.338003 253.872 
L 213.687667 253.872 
L 214.153885 253.872 
L 214.670055 253.872 
L 215.55254 253.872 
L 216.601532 253.872 
L 219.165733 253.872 
L 219.748506 253.872 
L 219.981616 253.872 
L 220.331279 253.872 
L 220.331279 253.872 
L 223.12859 253.872 
L 223.12859 253.872 
L 224.993464 253.872 
L 225.110019 253.872 
L 225.925901 253.872 
L 227.124748 253.872 
L 227.557665 253.872 
L 228.556705 253.872 
L 229.405889 253.872 
L 230.70464 253.872 
L 230.821195 253.872 
L 230.937749 253.872 
L 233.968169 253.872 
L 234.201278 253.872 
L 234.201278 253.872 
L 235.350174 253.872 
L 235.649886 253.872 
L 236.76548 253.872 
L 236.882034 253.872 
L 237.115144 253.872 
L 237.980978 253.872 
L 238.980017 253.872 
L 238.980017 253.872 
L 239.912454 253.872 
L 240.495227 253.872 
L 241.31111 253.872 
L 242.010437 253.872 
L 242.942874 253.872 
L 243.175983 253.872 
L 243.525647 253.872 
L 243.525647 253.872 
L 243.908612 253.872 
L 244.10842 253.872 
L 244.224975 253.872 
L 246.439512 253.872 
L 246.905731 253.872 
L 247.255395 253.872 
L 249.120269 253.872 
L 249.236823 253.872 
L 249.469932 253.872 
L 250.285815 253.872 
L 252.267243 253.872 
L 253.432789 253.872 
L 253.899008 253.872 
L 255.064554 253.872 
L 255.297663 253.872 
L 255.414218 253.872 
L 256.812873 253.872 
L 258.561192 253.872 
L 258.977459 253.872 
L 259.543581 253.872 
L 259.593533 253.872 
L 259.610184 253.872 
L 261.241948 253.872 
L 261.458407 253.872 
L 264.738587 253.872 
L 265.32136 253.872 
L 265.554469 253.872 
L 265.671023 253.872 
L 267.252836 253.872 
L 267.286137 253.872 
L 267.652452 253.872 
L 267.885561 253.872 
L 268.584889 253.872 
L 268.584889 253.872 
L 270.200003 253.872 
L 270.915981 253.872 
L 271.14909 253.872 
L 271.14909 253.872 
L 271.848418 253.872 
L 273.297025 253.872 
L 273.829846 253.872 
L 273.829846 253.872 
L 274.062955 253.872 
L 274.762283 253.872 
L 275.927829 253.872 
L 276.044384 253.872 
L 277.326485 253.872 
L 279.307913 253.872 
L 279.541022 253.872 
L 279.657577 253.872 
L 280.007241 253.872 
L 280.107145 253.872 
L 282.454887 253.872 
L 282.804551 253.872 
L 282.921106 253.872 
L 283.620434 253.872 
L 284.436316 253.872 
L 285.485307 253.872 
L 285.818321 253.872 
L 285.834971 253.872 
L 286.184635 253.872 
L 286.767408 253.872 
L 287.233627 253.872 
L 287.699845 253.872 
L 288.282618 253.872 
L 289.0985 253.872 
L 289.398212 253.872 
L 289.914383 253.872 
L 290.09754 253.872 
L 291.662702 253.872 
L 292.12892 253.872 
L 292.245475 253.872 
L 292.362029 253.872 
L 293.177912 253.872 
L 294.443362 253.872 
L 295.275895 253.872 
L 295.742113 253.872 
L 296.324886 253.872 
L 297.723542 253.872 
L 298.18976 253.872 
L 298.306315 253.872 
L 299.122197 253.872 
L 299.122197 253.872 
L 300.687359 253.872 
L 300.870516 253.872 
L 301.569844 253.872 
L 302.102665 253.872 
L 303.218259 253.872 
L 303.684477 253.872 
L 304.2506 253.872 
L 304.350504 253.872 
L 305.998919 253.872 
L 306.581692 253.872 
L 307.164465 253.872 
L 308.096902 253.872 
L 308.446566 253.872 
L 309.728667 253.872 
L 310.178234 253.872 
L 310.31144 253.872 
L 312.525977 253.872 
L 312.642532 253.872 
L 313.34186 253.872 
L 313.574969 253.872 
L 314.041187 253.872 
L 314.041187 253.872 
L 314.207694 253.872 
L 314.740515 253.872 
L 314.973624 253.872 
L 316.13917 253.872 
L 316.255725 253.872 
L 316.372279 253.872 
L 316.488834 253.872 
L 316.838498 253.872 
L 317.371319 253.872 
L 318.686721 253.872 
L 318.686721 253.872 
L 320.568246 253.872 
L 320.967861 253.872 
L 323.365556 253.872 
L 324.181438 253.872 
L 325.047273 253.872 
L 325.047273 82.426213 
L 325.047273 82.426213 
L 324.181438 72.731468 
L 323.365556 64.007997 
L 320.967861 68.988572 
L 320.568246 71.871353 
L 318.686721 60.322389 
L 318.686721 60.322389 
L 317.371319 58.899137 
L 316.838498 49.071005 
L 316.488834 50.802126 
L 316.372279 49.312865 
L 316.255725 57.531305 
L 316.13917 60.32844 
L 314.973624 46.917904 
L 314.740515 45.241036 
L 314.207694 46.748679 
L 314.041187 43.705131 
L 314.041187 43.705131 
L 313.574969 51.602572 
L 313.34186 51.125337 
L 312.642532 45.015736 
L 312.525977 46.135827 
L 310.31144 42.831457 
L 310.178234 45.972969 
L 309.728667 40.715532 
L 308.446566 39.905597 
L 308.096902 35.151143 
L 307.164465 36.051902 
L 306.581692 25.155083 
L 305.998919 41.996189 
L 304.350504 36.693537 
L 304.2506 35.380957 
L 303.684477 33.928943 
L 303.218259 25.316405 
L 302.102665 30.636116 
L 301.569844 14.952028 
L 300.870516 0.432 
L 300.687359 6.026803 
L 299.122197 22.45408 
L 299.122197 22.45408 
L 298.306315 22.340176 
L 298.18976 23.752184 
L 297.723542 21.633651 
L 296.324886 22.491664 
L 295.742113 24.323107 
L 295.275895 19.018931 
L 294.443362 19.051846 
L 293.177912 28.319487 
L 292.362029 30.421774 
L 292.245475 28.61633 
L 292.12892 27.64016 
L 291.662702 50.873352 
L 290.09754 51.080473 
L 289.914383 52.452145 
L 289.398212 43.681975 
L 289.0985 43.02461 
L 288.282618 46.112578 
L 287.699845 41.539256 
L 287.233627 39.90542 
L 286.767408 43.104192 
L 286.184635 45.423904 
L 285.834971 42.921142 
L 285.818321 39.71242 
L 285.485307 41.786682 
L 284.436316 44.181798 
L 283.620434 44.290683 
L 282.921106 40.516617 
L 282.804551 40.745145 
L 282.454887 42.818475 
L 280.107145 42.825547 
L 280.007241 45.426711 
L 279.657577 44.10255 
L 279.541022 43.806457 
L 279.307913 19.797196 
L 277.326485 30.658351 
L 276.044384 50.020917 
L 275.927829 56.786607 
L 274.762283 53.915578 
L 274.062955 48.535284 
L 273.829846 48.378747 
L 273.829846 48.378747 
L 273.297025 54.983878 
L 271.848418 55.830993 
L 271.14909 49.665566 
L 271.14909 49.665566 
L 270.915981 56.38546 
L 270.200003 57.875957 
L 268.584889 56.09853 
L 268.584889 56.09853 
L 267.885561 72.661098 
L 267.652452 70.483531 
L 267.286137 66.532915 
L 267.252836 72.90843 
L 265.671023 71.230937 
L 265.554469 71.153349 
L 265.32136 70.409822 
L 264.738587 67.673741 
L 261.458407 70.339588 
L 261.241948 74.162455 
L 259.610184 77.236625 
L 259.593533 75.133295 
L 259.543581 72.662789 
L 258.977459 72.641224 
L 258.561192 75.579414 
L 256.812873 99.710832 
L 255.414218 93.013414 
L 255.297663 110.889501 
L 255.064554 98.718035 
L 253.899008 104.791881 
L 253.432789 101.373894 
L 252.267243 112.765702 
L 250.285815 99.768979 
L 249.469932 89.01328 
L 249.236823 87.681264 
L 249.120269 85.376071 
L 247.255395 77.214748 
L 246.905731 78.823196 
L 246.439512 74.897894 
L 244.224975 73.646654 
L 244.10842 73.649494 
L 243.908612 72.934699 
L 243.525647 69.124652 
L 243.525647 69.124652 
L 243.175983 67.069547 
L 242.942874 74.362893 
L 242.010437 72.102254 
L 241.31111 68.574166 
L 240.495227 70.11656 
L 239.912454 73.778926 
L 238.980017 71.180932 
L 238.980017 71.180932 
L 237.980978 67.780438 
L 237.115144 69.532796 
L 236.882034 76.22708 
L 236.76548 68.447305 
L 235.649886 79.540949 
L 235.350174 73.398598 
L 234.201278 91.137293 
L 234.201278 91.137293 
L 233.968169 101.904151 
L 230.937749 103.640504 
L 230.821195 100.044816 
L 230.70464 103.681327 
L 229.405889 107.226992 
L 228.556705 103.014796 
L 227.557665 112.81776 
L 227.124748 112.68546 
L 225.925901 105.278811 
L 225.110019 114.140263 
L 224.993464 106.990179 
L 223.12859 95.345284 
L 223.12859 95.345284 
L 220.331279 118.642907 
L 220.331279 118.642907 
L 219.981616 101.409765 
L 219.748506 103.998825 
L 219.165733 104.729132 
L 216.601532 96.068439 
L 215.55254 95.761354 
L 214.670055 104.114507 
L 214.153885 88.490182 
L 213.687667 94.832156 
L 213.338003 93.139071 
L 213.104894 86.433716 
L 212.638675 92.66334 
L 212.605374 98.377167 
L 212.52212 102.637281 
L 212.52212 102.637281 
L 210.474089 96.8203 
L 210.074474 106.175839 
L 209.841364 103.198815 
L 207.543574 112.564314 
L 206.577835 118.786388 
L 206.344726 121.437206 
L 204.779564 126.94762 
L 204.363298 127.680622 
L 204.013634 135.398178 
L 202.015555 117.276992 
L 202.015555 117.276992 
L 201.565987 123.640135 
L 200.866659 135.965619 
L 196.104571 139.042462 
L 195.854811 141.866646 
L 194.922374 137.380759 
L 194.57271 131.662637 
L 192.707837 129.621692 
L 192.707837 129.621692 
L 191.7754 126.195796 
L 191.309181 130.84673 
L 188.74498 119.599233 
L 188.395316 123.907211 
L 188.362015 119.482655 
L 188.278761 124.517218 
L 186.413887 125.3467 
L 186.064224 123.502143 
L 185.997621 136.325914 
L 185.364896 139.595284 
L 185.065184 141.61571 
L 183.69983 148.926358 
L 183.69983 148.926358 
L 182.101367 145.982565 
L 179.836877 151.829787 
L 176.972964 137.085659 
L 176.856409 147.543845 
L 176.856409 147.543845 
L 176.157082 155.277818 
L 173.59288 151.747562 
L 171.611452 154.255586 
L 171.494897 158.762044 
L 171.494897 158.762044 
L 170.679015 155.269707 
L 170.56246 154.538318 
L 167.998259 152.242365 
L 167.53204 155.997062 
L 164.385066 161.573796 
L 164.268511 156.431331 
L 164.118655 158.150413 
L 163.918847 154.914611 
L 162.287083 157.505117 
L 161.70431 166.363134 
L 161.621057 162.416105 
L 161.004982 162.607994 
L 161.004982 162.607994 
L 159.256663 161.109224 
L 157.741453 165.49579 
L 153.312378 170.232172 
L 153.312378 170.232172 
L 153.312378 170.232172 
L 153.079269 157.686668 
L 151.913722 168.069178 
L 150.981286 160.90852 
L 150.015547 163.174293 
L 149.06646 164.315749 
L 148.999857 164.158572 
L 146.78532 165.666978 
L 146.202546 166.347643 
L 145.619773 169.046297 
L 140.841034 174.407333 
L 140.49137 168.40076 
L 139.908597 169.802793 
L 137.893868 172.178666 
L 136.878178 189.727288 
L 136.645068 188.328461 
L 133.381539 181.959801 
L 133.314937 184.088513 
L 131.982884 186.764142 
L 125.022908 185.973548 
L 122.77507 185.196248 
L 121.842633 186.721724 
L 117.413557 179.867834 
L 117.413557 179.867834 
L 116.364566 185.702389 
L 113.267543 186.859166 
L 112.1686 188.307742 
L 109.604398 188.007693 
L 109.021625 193.641705 
L 97.599273 211.354234 
L 93.752971 210.44756 
L 93.752971 210.44756 
L 85.710703 217.962365 
L 84.778266 216.88041 
L 83.263056 218.221523 
L 79.06709 217.027784 
L 79.06709 217.027784 
L 76.735998 220.662997 
L 73.23936 219.850096 
L 63.448772 223.94972 
L 60.418352 226.269935 
L 58.953094 223.770996 
L 58.786588 221.206805 
L 54.707176 221.089682 
L 54.707176 221.089682 
L 48.996 218.716585 
L 36.641211 220.600084 
L 36.058438 217.269666 
L 32.911464 202.975398 
L 31.163145 215.288594 
L 31.163145 215.288594 
L 24.752641 205.761226 
L 14.61239 229.944474 
L 12.281298 229.745585 
L 12.048188 218.281007 
L 12.048188 218.281007 
L 0.392727 231.945708 
z
" style="fill:#606060;"/>
   </g>
  </g>
 </g>
 <defs>
  <clipPath id="pee15c94a30">
   <rect height="266.112" width="357.12" x="-15.84" y="-12.24"/>
  </clipPath>
 </defs>
</svg>
