<?xml version="1.0" encoding="utf-8" standalone="no"?>
<!DOCTYPE svg PUBLIC "-//W3C//DTD SVG 1.1//EN"
  "http://www.w3.org/Graphics/SVG/1.1/DTD/svg11.dtd">
<!-- Created with matplotlib (https://matplotlib.org/) -->
<svg preserveAspectRatio="none" height="253.872pt" version="1.1" viewBox="0 0 325.44 253.872" width="325.44pt" xmlns="http://www.w3.org/2000/svg" xmlns:xlink="http://www.w3.org/1999/xlink">
 <metadata>
  <rdf:RDF xmlns:cc="http://creativecommons.org/ns#" xmlns:dc="http://purl.org/dc/elements/1.1/" xmlns:rdf="http://www.w3.org/1999/02/22-rdf-syntax-ns#">
   <cc:Work>
    <dc:type rdf:resource="http://purl.org/dc/dcmitype/StillImage"/>
    <dc:date>2021-03-31T19:27:55.154031</dc:date>
    <dc:format>image/svg+xml</dc:format>
    <dc:creator>
     <cc:Agent>
      <dc:title>Matplotlib v3.3.2, https://matplotlib.org/</dc:title>
     </cc:Agent>
    </dc:creator>
   </cc:Work>
  </rdf:RDF>
 </metadata>
 <defs>
  <style type="text/css">*{stroke-linecap:butt;stroke-linejoin:round;}</style>
 </defs>
 <g id="figure_1">
  <g id="patch_1">
   <path d="M 0 253.872 
L 325.44 253.872 
L 325.44 0 
L 0 0 
z
" style="fill:none;"/>
  </g>
  <g id="axes_1">
   <g id="PolyCollection_1">
    <path clip-path="url(#p82bd996435)" d="M 0.392727 222.677079 
L 0.392727 253.872 
L 12.048188 253.872 
L 12.281298 253.872 
L 14.61239 253.872 
L 24.752641 253.872 
L 31.163145 253.872 
L 32.911464 253.872 
L 36.058438 253.872 
L 36.641211 253.872 
L 48.996 253.872 
L 54.707176 253.872 
L 58.786588 253.872 
L 58.953094 253.872 
L 60.418352 253.872 
L 63.448772 253.872 
L 73.23936 253.872 
L 76.735998 253.872 
L 79.06709 253.872 
L 83.263056 253.872 
L 84.778266 253.872 
L 85.710703 253.872 
L 93.752971 253.872 
L 97.599273 253.872 
L 109.021625 253.872 
L 109.604398 253.872 
L 112.1686 253.872 
L 113.267543 253.872 
L 116.364566 253.872 
L 117.413557 253.872 
L 121.842633 253.872 
L 122.77507 253.872 
L 125.022908 253.872 
L 131.982884 253.872 
L 133.314937 253.872 
L 133.381539 253.872 
L 136.645068 253.872 
L 136.878178 253.872 
L 137.893868 253.872 
L 139.908597 253.872 
L 140.49137 253.872 
L 140.841034 253.872 
L 145.619773 253.872 
L 146.202546 253.872 
L 146.78532 253.872 
L 148.999857 253.872 
L 149.06646 253.872 
L 150.015547 253.872 
L 150.981286 253.872 
L 151.913722 253.872 
L 153.079269 253.872 
L 153.312378 253.872 
L 157.741453 253.872 
L 159.256663 253.872 
L 161.004982 253.872 
L 161.004982 253.872 
L 161.621057 253.872 
L 161.70431 253.872 
L 162.287083 253.872 
L 163.918847 253.872 
L 164.118655 253.872 
L 164.268511 253.872 
L 164.385066 253.872 
L 167.53204 253.872 
L 167.998259 253.872 
L 170.56246 253.872 
L 170.679015 253.872 
L 171.494897 253.872 
L 171.494897 253.872 
L 171.611452 253.872 
L 173.59288 253.872 
L 176.157082 253.872 
L 176.856409 253.872 
L 176.972964 253.872 
L 179.836877 253.872 
L 182.101367 253.872 
L 183.69983 253.872 
L 185.065184 253.872 
L 185.364896 253.872 
L 185.997621 253.872 
L 186.064224 253.872 
L 188.278761 253.872 
L 188.362015 253.872 
L 188.395316 253.872 
L 188.74498 253.872 
L 191.309181 253.872 
L 191.7754 253.872 
L 192.707837 253.872 
L 192.707837 253.872 
L 194.57271 253.872 
L 194.922374 253.872 
L 195.854811 253.872 
L 196.104571 253.872 
L 200.866659 253.872 
L 201.565987 253.872 
L 202.015555 253.872 
L 204.363298 253.872 
L 204.779564 253.872 
L 206.344726 253.872 
L 206.577835 253.872 
L 207.543574 253.872 
L 209.841364 253.872 
L 210.074474 253.872 
L 210.474089 253.872 
L 212.52212 253.872 
L 212.52212 253.872 
L 212.605374 253.872 
L 212.638675 253.872 
L 213.338003 253.872 
L 213.687667 253.872 
L 214.153885 253.872 
L 214.670055 253.872 
L 215.55254 253.872 
L 216.601532 253.872 
L 219.165733 253.872 
L 219.748506 253.872 
L 219.981616 253.872 
L 220.331279 253.872 
L 223.12859 253.872 
L 223.12859 253.872 
L 224.993464 253.872 
L 225.110019 253.872 
L 225.925901 253.872 
L 227.124748 253.872 
L 227.557665 253.872 
L 228.556705 253.872 
L 229.405889 253.872 
L 230.70464 253.872 
L 230.821195 253.872 
L 230.937749 253.872 
L 233.968169 253.872 
L 234.201278 253.872 
L 234.201278 253.872 
L 235.350174 253.872 
L 235.649886 253.872 
L 236.882034 253.872 
L 237.115144 253.872 
L 237.980978 253.872 
L 238.980017 253.872 
L 239.912454 253.872 
L 240.495227 253.872 
L 241.31111 253.872 
L 242.010437 253.872 
L 242.942874 253.872 
L 243.175983 253.872 
L 243.525647 253.872 
L 243.525647 253.872 
L 243.908612 253.872 
L 244.10842 253.872 
L 244.224975 253.872 
L 246.439512 253.872 
L 246.905731 253.872 
L 247.255395 253.872 
L 249.120269 253.872 
L 249.236823 253.872 
L 249.469932 253.872 
L 250.285815 253.872 
L 253.432789 253.872 
L 253.899008 253.872 
L 255.064554 253.872 
L 255.297663 253.872 
L 255.414218 253.872 
L 256.812873 253.872 
L 258.561192 253.872 
L 258.977459 253.872 
L 259.543581 253.872 
L 259.593533 253.872 
L 259.610184 253.872 
L 261.241948 253.872 
L 261.458407 253.872 
L 264.738587 253.872 
L 265.32136 253.872 
L 265.554469 253.872 
L 265.671023 253.872 
L 267.252836 253.872 
L 267.286137 253.872 
L 267.652452 253.872 
L 267.885561 253.872 
L 268.584889 253.872 
L 268.584889 253.872 
L 270.200003 253.872 
L 270.915981 253.872 
L 271.14909 253.872 
L 271.14909 253.872 
L 271.848418 253.872 
L 273.297025 253.872 
L 273.829846 253.872 
L 274.062955 253.872 
L 274.762283 253.872 
L 275.927829 253.872 
L 276.044384 253.872 
L 277.326485 253.872 
L 279.307913 253.872 
L 279.541022 253.872 
L 279.657577 253.872 
L 280.007241 253.872 
L 280.107145 253.872 
L 282.454887 253.872 
L 282.804551 253.872 
L 282.921106 253.872 
L 283.620434 253.872 
L 284.436316 253.872 
L 285.485307 253.872 
L 285.818321 253.872 
L 285.834971 253.872 
L 286.184635 253.872 
L 286.767408 253.872 
L 287.233627 253.872 
L 287.699845 253.872 
L 288.282618 253.872 
L 289.0985 253.872 
L 289.398212 253.872 
L 289.914383 253.872 
L 290.09754 253.872 
L 291.662702 253.872 
L 292.12892 253.872 
L 292.245475 253.872 
L 292.362029 253.872 
L 293.177912 253.872 
L 294.443362 253.872 
L 295.275895 253.872 
L 295.742113 253.872 
L 296.324886 253.872 
L 297.723542 253.872 
L 298.306315 253.872 
L 299.122197 253.872 
L 299.122197 253.872 
L 300.687359 253.872 
L 300.870516 253.872 
L 301.569844 253.872 
L 303.218259 253.872 
L 303.684477 253.872 
L 304.2506 253.872 
L 304.350504 253.872 
L 305.998919 253.872 
L 306.581692 253.872 
L 307.164465 253.872 
L 308.096902 253.872 
L 308.446566 253.872 
L 309.728667 253.872 
L 310.178234 253.872 
L 310.31144 253.872 
L 312.525977 253.872 
L 312.642532 253.872 
L 313.34186 253.872 
L 313.574969 253.872 
L 314.041187 253.872 
L 314.041187 253.872 
L 314.207694 253.872 
L 314.740515 253.872 
L 314.973624 253.872 
L 316.13917 253.872 
L 316.255725 253.872 
L 316.372279 253.872 
L 316.488834 253.872 
L 316.838498 253.872 
L 318.686721 253.872 
L 318.686721 253.872 
L 320.568246 253.872 
L 320.967861 253.872 
L 323.365556 253.872 
L 324.181438 253.872 
L 325.047273 253.872 
L 325.047273 51.684901 
L 325.047273 51.684901 
L 324.181438 44.111128 
L 323.365556 37.301175 
L 320.967861 41.581189 
L 320.568246 43.923225 
L 318.686721 35.017247 
L 318.686721 35.017247 
L 316.838498 26.342825 
L 316.488834 27.764241 
L 316.372279 26.598542 
L 316.255725 33.135407 
L 316.13917 35.370743 
L 314.973624 24.889704 
L 314.740515 23.591102 
L 314.207694 24.860269 
L 314.041187 22.46816 
L 314.041187 22.46816 
L 313.574969 28.798188 
L 313.34186 28.451433 
L 312.642532 23.699498 
L 312.525977 24.604186 
L 310.31144 22.285452 
L 310.178234 24.796313 
L 309.728667 20.686341 
L 308.446566 20.219186 
L 308.096902 16.494631 
L 307.164465 17.336964 
L 306.581692 8.770663 
L 305.998919 22.212984 
L 304.350504 18.231228 
L 304.2506 17.203437 
L 303.684477 16.128826 
L 303.218259 20.372785 
L 301.569844 12.011365 
L 300.870516 0.432 
L 300.687359 4.855876 
L 299.122197 17.759221 
L 299.122197 17.759221 
L 298.306315 17.600632 
L 297.723542 16.991318 
L 296.324886 17.555172 
L 295.742113 18.959604 
L 295.275895 14.712034 
L 294.443362 14.668546 
L 293.177912 21.916145 
L 292.362029 23.515989 
L 292.245475 22.073717 
L 292.12892 21.289432 
L 291.662702 39.6848 
L 290.09754 39.718283 
L 289.914383 40.791321 
L 289.398212 44.685145 
L 289.0985 39.813574 
L 288.282618 42.607754 
L 287.699845 39.224798 
L 287.233627 38.125025 
L 286.767408 40.859678 
L 286.184635 42.94599 
L 285.834971 41.107621 
L 285.818321 38.568686 
L 285.485307 40.354929 
L 284.436316 42.697662 
L 283.620434 43.128092 
L 282.921106 40.428452 
L 282.804551 40.658925 
L 282.454887 42.451451 
L 280.107145 43.067774 
L 280.007241 45.175584 
L 279.657577 44.278651 
L 279.541022 44.094957 
L 279.307913 25.147319 
L 277.326485 34.636169 
L 276.044384 50.563014 
L 275.927829 55.982481 
L 274.762283 57.092401 
L 274.062955 53.170423 
L 273.829846 52.434116 
L 273.297025 58.66711 
L 271.848418 60.058057 
L 271.14909 55.513117 
L 271.14909 55.513117 
L 270.915981 60.960678 
L 270.200003 62.498583 
L 268.584889 61.889713 
L 268.584889 61.889713 
L 267.885561 75.378271 
L 267.652452 73.766153 
L 267.286137 70.813309 
L 267.252836 75.888478 
L 265.671023 75.342376 
L 265.554469 75.338649 
L 265.32136 74.864368 
L 264.738587 72.982603 
L 261.458407 76.725456 
L 261.241948 79.866113 
L 259.610184 83.114998 
L 259.593533 81.454376 
L 259.543581 79.518942 
L 258.977459 74.76034 
L 258.561192 76.331468 
L 256.812873 96.109717 
L 255.414218 91.300624 
L 255.297663 105.526463 
L 255.064554 105.854664 
L 253.899008 110.543767 
L 253.432789 107.779697 
L 250.285815 106.154785 
L 249.469932 97.529561 
L 249.236823 96.446638 
L 249.120269 94.604567 
L 247.255395 87.920683 
L 246.905731 89.157849 
L 246.439512 85.99125 
L 244.224975 84.751107 
L 244.10842 84.740342 
L 243.908612 84.150872 
L 243.525647 81.085021 
L 243.525647 81.085021 
L 243.175983 79.415346 
L 242.942874 85.176205 
L 242.010437 83.278357 
L 241.31111 80.400891 
L 240.495227 81.533573 
L 239.912454 84.374381 
L 238.980017 87.834697 
L 237.980978 79.399157 
L 237.115144 80.692856 
L 236.882034 85.97839 
L 235.649886 96.886513 
L 235.350174 92.131195 
L 234.201278 106.659509 
L 234.201278 106.659509 
L 233.968169 115.294488 
L 230.937749 111.506305 
L 230.821195 108.729874 
L 230.70464 111.69182 
L 229.405889 115.358247 
L 228.556705 113.474931 
L 227.557665 121.008295 
L 227.124748 121.187696 
L 225.925901 116.098399 
L 225.110019 123.665443 
L 224.993464 118.068781 
L 223.12859 110.054151 
L 223.12859 110.054151 
L 220.331279 116.976823 
L 219.981616 109.036945 
L 219.748506 111.093259 
L 219.165733 111.67779 
L 216.601532 104.828279 
L 215.55254 104.593748 
L 214.670055 111.229223 
L 214.153885 98.836612 
L 213.687667 103.872699 
L 213.338003 102.532364 
L 212.638675 102.160979 
L 212.605374 106.694898 
L 212.52212 110.075804 
L 212.52212 110.075804 
L 210.474089 105.478143 
L 210.074474 112.90476 
L 209.841364 110.544672 
L 207.543574 117.995703 
L 206.577835 122.941 
L 206.344726 125.046316 
L 204.779564 128.531128 
L 204.363298 129.100574 
L 202.015555 121.619866 
L 201.565987 123.16159 
L 200.866659 133.202772 
L 196.104571 137.425061 
L 195.854811 139.759314 
L 194.922374 136.548715 
L 194.57271 132.142449 
L 192.707837 131.220508 
L 192.707837 131.220508 
L 191.7754 128.850957 
L 191.309181 132.715596 
L 188.74498 128.8018 
L 188.395316 132.231568 
L 188.362015 128.722015 
L 188.278761 132.719446 
L 186.064224 131.987554 
L 185.997621 142.16477 
L 185.364896 144.779853 
L 185.065184 146.392907 
L 183.69983 148.56362 
L 182.101367 145.96019 
L 179.836877 147.473125 
L 176.972964 136.882733 
L 176.856409 144.901368 
L 176.157082 151.113753 
L 173.59288 148.590885 
L 171.611452 150.795852 
L 171.494897 154.384141 
L 171.494897 154.384141 
L 170.679015 151.701671 
L 170.56246 151.133998 
L 167.998259 150.816251 
L 167.53204 153.807081 
L 164.385066 158.310707 
L 164.268511 154.233342 
L 164.118655 155.601096 
L 163.918847 153.038655 
L 162.287083 155.134934 
L 161.70431 162.177904 
L 161.621057 159.048223 
L 161.004982 159.215898 
L 161.004982 159.215898 
L 159.256663 158.070464 
L 157.741453 161.588907 
L 153.312378 169.867467 
L 153.079269 159.957296 
L 151.913722 168.415506 
L 150.981286 162.910066 
L 150.015547 164.890309 
L 149.06646 162.105723 
L 148.999857 161.98522 
L 146.78532 163.321987 
L 146.202546 163.898882 
L 145.619773 166.076948 
L 140.841034 170.632597 
L 140.49137 165.888783 
L 139.908597 167.038046 
L 137.893868 169.050479 
L 136.878178 183.038587 
L 136.645068 181.943418 
L 133.381539 177.096417 
L 133.314937 178.78965 
L 131.982884 180.996789 
L 125.022908 180.809255 
L 122.77507 180.334536 
L 121.842633 181.603838 
L 117.413557 177.940458 
L 116.364566 181.141177 
L 113.267543 182.254704 
L 112.1686 183.473511 
L 109.604398 183.397455 
L 109.021625 187.904577 
L 97.599273 201.428321 
L 93.752971 200.708922 
L 85.710703 206.671534 
L 84.778266 205.813059 
L 83.263056 206.877162 
L 79.06709 205.929992 
L 76.735998 208.814347 
L 73.23936 208.837789 
L 63.448772 211.737494 
L 60.418352 213.469161 
L 58.953094 211.433531 
L 58.786588 209.392971 
L 54.707176 210.031537 
L 48.996 208.615441 
L 36.641211 209.786473 
L 36.058438 207.128701 
L 32.911464 201.213263 
L 31.163145 206.045015 
L 24.752641 201.492559 
L 14.61239 218.280626 
L 12.281298 217.57107 
L 12.048188 212.943668 
L 0.392727 222.677079 
z
" style="fill:#c0c0c0;"/>
   </g>
  </g>
 </g>
 <defs>
  <clipPath id="p82bd996435">
   <rect height="266.112" width="357.12" x="-15.84" y="-12.24"/>
  </clipPath>
 </defs>
</svg>
