<?xml version="1.0" encoding="utf-8" standalone="no"?>
<!DOCTYPE svg PUBLIC "-//W3C//DTD SVG 1.1//EN"
  "http://www.w3.org/Graphics/SVG/1.1/DTD/svg11.dtd">
<!-- Created with matplotlib (https://matplotlib.org/) -->
<svg preserveAspectRatio="none" height="253.872pt" version="1.1" viewBox="0 0 325.44 253.872" width="325.44pt" xmlns="http://www.w3.org/2000/svg" xmlns:xlink="http://www.w3.org/1999/xlink">
 <metadata>
  <rdf:RDF xmlns:cc="http://creativecommons.org/ns#" xmlns:dc="http://purl.org/dc/elements/1.1/" xmlns:rdf="http://www.w3.org/1999/02/22-rdf-syntax-ns#">
   <cc:Work>
    <dc:type rdf:resource="http://purl.org/dc/dcmitype/StillImage"/>
    <dc:date>2021-04-01T22:14:43.156305</dc:date>
    <dc:format>image/svg+xml</dc:format>
    <dc:creator>
     <cc:Agent>
      <dc:title>Matplotlib v3.3.2, https://matplotlib.org/</dc:title>
     </cc:Agent>
    </dc:creator>
   </cc:Work>
  </rdf:RDF>
 </metadata>
 <defs>
  <style type="text/css">*{stroke-linecap:butt;stroke-linejoin:round;}</style>
 </defs>
 <g id="figure_1">
  <g id="patch_1">
   <path d="M 0 253.872 
L 325.44 253.872 
L 325.44 0 
L 0 0 
z
" style="fill:none;"/>
  </g>
  <g id="axes_1">
   <g id="PolyCollection_1">
    <path clip-path="url(#pcfc2841ef4)" d="M 0.392727 236.283944 
L 0.392727 253.872 
L 12.048188 253.872 
L 12.048188 253.872 
L 12.281298 253.872 
L 14.61239 253.872 
L 24.752641 253.872 
L 31.163145 253.872 
L 31.163145 253.872 
L 32.911464 253.872 
L 36.058438 253.872 
L 36.641211 253.872 
L 48.996 253.872 
L 54.707176 253.872 
L 54.707176 253.872 
L 58.786588 253.872 
L 58.953094 253.872 
L 60.418352 253.872 
L 63.448772 253.872 
L 73.23936 253.872 
L 76.735998 253.872 
L 79.06709 253.872 
L 79.06709 253.872 
L 83.263056 253.872 
L 84.778266 253.872 
L 85.710703 253.872 
L 93.752971 253.872 
L 93.752971 253.872 
L 97.599273 253.872 
L 109.021625 253.872 
L 109.604398 253.872 
L 112.1686 253.872 
L 113.267543 253.872 
L 116.364566 253.872 
L 117.413557 253.872 
L 117.413557 253.872 
L 121.842633 253.872 
L 122.77507 253.872 
L 125.022908 253.872 
L 131.982884 253.872 
L 133.314937 253.872 
L 133.381539 253.872 
L 136.645068 253.872 
L 136.878178 253.872 
L 137.893868 253.872 
L 139.908597 253.872 
L 140.49137 253.872 
L 140.841034 253.872 
L 145.619773 253.872 
L 146.202546 253.872 
L 146.78532 253.872 
L 148.999857 253.872 
L 149.06646 253.872 
L 150.015547 253.872 
L 150.981286 253.872 
L 151.913722 253.872 
L 153.079269 253.872 
L 153.312378 253.872 
L 153.312378 253.872 
L 153.312378 253.872 
L 157.741453 253.872 
L 159.256663 253.872 
L 161.004982 253.872 
L 161.004982 253.872 
L 161.621057 253.872 
L 161.70431 253.872 
L 162.287083 253.872 
L 163.918847 253.872 
L 164.118655 253.872 
L 164.268511 253.872 
L 164.385066 253.872 
L 167.53204 253.872 
L 167.998259 253.872 
L 170.56246 253.872 
L 170.679015 253.872 
L 171.494897 253.872 
L 171.494897 253.872 
L 171.611452 253.872 
L 173.59288 253.872 
L 176.157082 253.872 
L 176.856409 253.872 
L 176.856409 253.872 
L 176.972964 253.872 
L 179.836877 253.872 
L 182.101367 253.872 
L 183.69983 253.872 
L 183.69983 253.872 
L 185.065184 253.872 
L 185.364896 253.872 
L 185.997621 253.872 
L 186.064224 253.872 
L 186.413887 253.872 
L 188.278761 253.872 
L 188.362015 253.872 
L 188.395316 253.872 
L 188.74498 253.872 
L 191.309181 253.872 
L 191.7754 253.872 
L 192.707837 253.872 
L 192.707837 253.872 
L 194.57271 253.872 
L 194.922374 253.872 
L 195.854811 253.872 
L 196.104571 253.872 
L 200.866659 253.872 
L 201.565987 253.872 
L 202.015555 253.872 
L 202.015555 253.872 
L 204.013634 253.872 
L 204.363298 253.872 
L 204.779564 253.872 
L 206.344726 253.872 
L 206.577835 253.872 
L 207.543574 253.872 
L 209.841364 253.872 
L 210.074474 253.872 
L 210.474089 253.872 
L 212.52212 253.872 
L 212.52212 253.872 
L 212.605374 253.872 
L 212.638675 253.872 
L 213.104894 253.872 
L 213.338003 253.872 
L 213.687667 253.872 
L 214.153885 253.872 
L 214.670055 253.872 
L 215.55254 253.872 
L 216.601532 253.872 
L 219.165733 253.872 
L 219.748506 253.872 
L 219.981616 253.872 
L 220.331279 253.872 
L 220.331279 253.872 
L 223.12859 253.872 
L 223.12859 253.872 
L 224.993464 253.872 
L 225.110019 253.872 
L 225.925901 253.872 
L 227.124748 253.872 
L 227.557665 253.872 
L 228.556705 253.872 
L 229.405889 253.872 
L 230.70464 253.872 
L 230.821195 253.872 
L 230.937749 253.872 
L 233.968169 253.872 
L 234.201278 253.872 
L 234.201278 253.872 
L 235.350174 253.872 
L 235.649886 253.872 
L 236.76548 253.872 
L 236.882034 253.872 
L 237.115144 253.872 
L 237.980978 253.872 
L 238.980017 253.872 
L 239.912454 253.872 
L 240.495227 253.872 
L 241.31111 253.872 
L 242.010437 253.872 
L 242.942874 253.872 
L 243.175983 253.872 
L 243.525647 253.872 
L 243.525647 253.872 
L 243.908612 253.872 
L 244.10842 253.872 
L 244.224975 253.872 
L 246.439512 253.872 
L 246.905731 253.872 
L 247.255395 253.872 
L 249.120269 253.872 
L 249.236823 253.872 
L 249.469932 253.872 
L 250.285815 253.872 
L 252.267243 253.872 
L 253.432789 253.872 
L 253.899008 253.872 
L 255.064554 253.872 
L 255.297663 253.872 
L 255.414218 253.872 
L 256.812873 253.872 
L 258.561192 253.872 
L 258.977459 253.872 
L 259.543581 253.872 
L 259.593533 253.872 
L 259.610184 253.872 
L 261.241948 253.872 
L 261.458407 253.872 
L 264.738587 253.872 
L 265.32136 253.872 
L 265.554469 253.872 
L 265.671023 253.872 
L 267.252836 253.872 
L 267.286137 253.872 
L 267.652452 253.872 
L 267.885561 253.872 
L 268.584889 253.872 
L 268.584889 253.872 
L 270.200003 253.872 
L 270.915981 253.872 
L 271.14909 253.872 
L 271.14909 253.872 
L 271.848418 253.872 
L 273.297025 253.872 
L 273.829846 253.872 
L 273.829846 253.872 
L 274.062955 253.872 
L 274.762283 253.872 
L 275.927829 253.872 
L 276.044384 253.872 
L 277.326485 253.872 
L 279.307913 253.872 
L 279.541022 253.872 
L 279.657577 253.872 
L 280.007241 253.872 
L 280.107145 253.872 
L 282.454887 253.872 
L 282.804551 253.872 
L 282.921106 253.872 
L 283.620434 253.872 
L 284.436316 253.872 
L 285.485307 253.872 
L 285.818321 253.872 
L 285.834971 253.872 
L 286.184635 253.872 
L 286.767408 253.872 
L 287.233627 253.872 
L 287.699845 253.872 
L 288.282618 253.872 
L 289.0985 253.872 
L 289.398212 253.872 
L 289.914383 253.872 
L 290.09754 253.872 
L 291.662702 253.872 
L 292.12892 253.872 
L 292.245475 253.872 
L 292.362029 253.872 
L 293.177912 253.872 
L 294.443362 253.872 
L 295.275895 253.872 
L 295.742113 253.872 
L 296.324886 253.872 
L 297.723542 253.872 
L 298.18976 253.872 
L 298.306315 253.872 
L 299.122197 253.872 
L 299.122197 253.872 
L 300.687359 253.872 
L 300.870516 253.872 
L 301.569844 253.872 
L 302.102665 253.872 
L 303.218259 253.872 
L 303.684477 253.872 
L 304.2506 253.872 
L 304.350504 253.872 
L 305.998919 253.872 
L 306.581692 253.872 
L 307.164465 253.872 
L 308.096902 253.872 
L 308.446566 253.872 
L 309.728667 253.872 
L 310.178234 253.872 
L 310.31144 253.872 
L 312.525977 253.872 
L 312.642532 253.872 
L 313.34186 253.872 
L 313.574969 253.872 
L 314.041187 253.872 
L 314.041187 253.872 
L 314.207694 253.872 
L 314.740515 253.872 
L 314.973624 253.872 
L 316.13917 253.872 
L 316.255725 253.872 
L 316.372279 253.872 
L 316.488834 253.872 
L 316.838498 253.872 
L 317.371319 253.872 
L 318.686721 253.872 
L 318.686721 253.872 
L 320.568246 253.872 
L 320.967861 253.872 
L 323.365556 253.872 
L 324.181438 253.872 
L 325.047273 253.872 
L 325.047273 51.182363 
L 325.047273 51.182363 
L 324.181438 43.943712 
L 323.365556 37.453129 
L 320.967861 42.937942 
L 320.568246 45.498628 
L 318.686721 37.403667 
L 318.686721 37.403667 
L 317.371319 37.079263 
L 316.838498 29.526718 
L 316.488834 31.132571 
L 316.372279 30.010383 
L 316.255725 36.675175 
L 316.13917 38.991296 
L 314.973624 28.958253 
L 314.740515 27.757992 
L 314.207694 29.298377 
L 314.041187 26.960461 
L 314.041187 26.960461 
L 313.574969 33.585009 
L 313.34186 33.347026 
L 312.642532 28.880731 
L 312.525977 29.85162 
L 310.31144 28.576914 
L 310.178234 31.179621 
L 309.728667 27.24171 
L 308.446566 27.388585 
L 308.096902 23.792069 
L 307.164465 25.093925 
L 306.581692 16.715173 
L 305.998919 30.586248 
L 304.350504 27.356904 
L 304.2506 26.366094 
L 303.684477 25.553097 
L 303.218259 18.934255 
L 302.102665 23.894543 
L 301.569844 11.644674 
L 300.870516 0.432 
L 300.687359 5.033635 
L 299.122197 19.183111 
L 299.122197 19.183111 
L 298.306315 19.598645 
L 298.18976 20.803695 
L 297.723542 19.393983 
L 296.324886 20.951209 
L 295.742113 22.782364 
L 295.275895 18.817306 
L 294.443362 19.360955 
L 293.177912 27.581159 
L 292.362029 29.774399 
L 292.245475 28.398586 
L 292.12892 27.687971 
L 291.662702 46.614009 
L 290.09754 47.752574 
L 289.914383 48.966648 
L 289.398212 42.252396 
L 289.0985 41.911303 
L 288.282618 44.895202 
L 287.699845 41.58881 
L 287.233627 40.567896 
L 286.767408 43.423431 
L 286.184635 45.646248 
L 285.834971 43.855915 
L 285.818321 41.292401 
L 285.485307 43.163158 
L 284.436316 45.736118 
L 283.620434 46.330362 
L 282.921106 43.737503 
L 282.804551 43.99323 
L 282.454887 45.873584 
L 280.107145 47.337893 
L 280.007241 49.486472 
L 279.657577 48.641547 
L 279.541022 48.476453 
L 279.307913 29.362383 
L 277.326485 39.305647 
L 276.044384 55.633786 
L 275.927829 61.133261 
L 274.762283 59.554427 
L 274.062955 55.673141 
L 273.829846 55.692405 
L 273.829846 55.692405 
L 273.297025 61.321712 
L 271.848418 62.901231 
L 271.14909 58.390155 
L 271.14909 58.390155 
L 270.915981 63.92531 
L 270.200003 65.565737 
L 268.584889 65.143442 
L 268.584889 65.143442 
L 267.885561 78.863504 
L 267.652452 77.26161 
L 267.286137 74.320233 
L 267.252836 79.455008 
L 265.671023 79.092185 
L 265.554469 79.102363 
L 265.32136 78.650775 
L 264.738587 76.818116 
L 261.458407 80.994464 
L 261.241948 84.19544 
L 259.610184 87.675173 
L 259.593533 85.998343 
L 259.543581 84.047675 
L 258.977459 84.382104 
L 258.561192 86.997581 
L 256.812873 107.440686 
L 255.414218 102.937363 
L 255.297663 117.348984 
L 255.064554 107.730538 
L 253.899008 113.326786 
L 253.432789 110.874725 
L 252.267243 120.736747 
L 250.285815 111.542545 
L 249.469932 103.421821 
L 249.236823 102.498181 
L 249.120269 100.721497 
L 247.255395 95.333569 
L 246.905731 96.841021 
L 246.439512 93.982019 
L 244.224975 94.35422 
L 244.10842 94.428913 
L 243.908612 93.979683 
L 243.525647 91.161409 
L 243.525647 91.161409 
L 243.175983 89.730161 
L 242.942874 95.725308 
L 242.010437 94.491265 
L 241.31111 92.095716 
L 240.495227 93.839841 
L 239.912454 97.139661 
L 238.980017 101.322505 
L 237.980978 93.528019 
L 237.115144 95.471601 
L 236.882034 100.986213 
L 236.76548 94.818123 
L 235.649886 104.409941 
L 235.350174 99.669096 
L 234.201278 114.611895 
L 234.201278 114.611895 
L 233.968169 123.393301 
L 230.937749 126.668886 
L 230.821195 123.85704 
L 230.70464 126.846461 
L 229.405889 130.497502 
L 228.556705 127.646304 
L 227.557665 136.130395 
L 227.124748 136.29324 
L 225.925901 131.096872 
L 225.110019 138.711939 
L 224.993464 133.048953 
L 223.12859 124.866697 
L 223.12859 124.866697 
L 220.331279 145.398715 
L 220.331279 145.398715 
L 219.981616 131.575243 
L 219.748506 133.652044 
L 219.165733 134.237855 
L 216.601532 127.290727 
L 215.55254 127.044401 
L 214.670055 133.744837 
L 214.153885 121.21187 
L 213.687667 126.29905 
L 213.338003 124.940951 
L 213.104894 119.562286 
L 212.638675 124.559346 
L 212.605374 129.142661 
L 212.52212 132.559888 
L 212.52212 132.559888 
L 210.474089 127.893829 
L 210.074474 135.398324 
L 209.841364 133.01032 
L 207.543574 140.522804 
L 206.577835 145.513808 
L 206.344726 147.640147 
L 204.779564 152.060295 
L 204.363298 152.648269 
L 204.013634 158.838865 
L 202.015555 144.303054 
L 202.015555 144.303054 
L 201.565987 149.407214 
L 200.866659 159.294035 
L 196.104571 161.762107 
L 195.854811 164.027511 
L 194.922374 160.429181 
L 194.57271 155.84242 
L 192.707837 154.205288 
L 192.707837 154.205288 
L 191.7754 151.457224 
L 191.309181 155.187945 
L 188.74498 146.165826 
L 188.395316 149.621448 
L 188.362015 146.072314 
L 188.278761 150.110762 
L 186.413887 150.776126 
L 186.064224 149.296524 
L 185.997621 159.583043 
L 185.364896 162.205551 
L 185.065184 163.826225 
L 183.69983 169.690421 
L 183.69983 169.690421 
L 182.101367 167.329074 
L 179.836877 172.019391 
L 176.972964 160.192469 
L 176.856409 168.581446 
L 176.856409 168.581446 
L 176.157082 174.78521 
L 173.59288 171.953435 
L 171.611452 173.965232 
L 171.494897 177.580064 
L 171.494897 177.580064 
L 170.679015 174.778704 
L 170.56246 174.192024 
L 167.998259 172.350338 
L 167.53204 175.362148 
L 164.385066 179.835495 
L 164.268511 175.710494 
L 164.118655 177.089447 
L 163.918847 174.493866 
L 162.287083 176.571827 
L 161.70431 183.677236 
L 161.621057 180.511149 
L 161.004982 180.665071 
L 161.004982 180.665071 
L 159.256663 179.462841 
L 157.741453 182.981501 
L 153.312378 186.780765 
L 153.312378 186.780765 
L 153.312378 186.780765 
L 153.079269 176.717456 
L 151.913722 185.045731 
L 150.981286 179.301847 
L 150.015547 181.119325 
L 149.06646 182.034937 
L 148.999857 181.908859 
L 146.78532 183.118819 
L 146.202546 183.664811 
L 145.619773 185.829521 
L 140.841034 190.129847 
L 140.49137 185.311707 
L 139.908597 186.436341 
L 137.893868 188.342134 
L 136.878178 202.418666 
L 136.645068 201.296605 
L 133.381539 196.188019 
L 133.314937 197.895554 
L 131.982884 200.041795 
L 125.022908 199.407624 
L 122.77507 198.784117 
L 121.842633 200.007769 
L 117.413557 194.509958 
L 117.413557 194.509958 
L 116.364566 199.190116 
L 113.267543 200.118018 
L 112.1686 201.279985 
L 109.604398 201.039302 
L 109.021625 205.558595 
L 97.599273 219.766604 
L 93.752971 219.039321 
L 93.752971 219.039321 
L 85.710703 225.067281 
L 84.778266 224.199397 
L 83.263056 225.275162 
L 79.06709 224.317611 
L 79.06709 224.317611 
L 76.735998 227.233578 
L 73.23936 226.581514 
L 63.448772 229.870005 
L 60.418352 231.731153 
L 58.953094 229.726643 
L 58.786588 227.669791 
L 54.707176 227.575841 
L 54.707176 227.575841 
L 48.996 225.672274 
L 36.641211 227.183113 
L 36.058438 224.511636 
L 32.911464 213.045566 
L 31.163145 222.92253 
L 31.163145 222.92253 
L 24.752641 215.280203 
L 14.61239 234.678664 
L 12.281298 234.519126 
L 12.048188 225.322877 
L 12.048188 225.322877 
L 0.392727 236.283944 
z
" style="fill:#606060;"/>
   </g>
  </g>
 </g>
 <defs>
  <clipPath id="pcfc2841ef4">
   <rect height="266.112" width="357.12" x="-15.84" y="-12.24"/>
  </clipPath>
 </defs>
</svg>
