<?xml version="1.0" encoding="utf-8" standalone="no"?>
<!DOCTYPE svg PUBLIC "-//W3C//DTD SVG 1.1//EN"
  "http://www.w3.org/Graphics/SVG/1.1/DTD/svg11.dtd">
<!-- Created with matplotlib (https://matplotlib.org/) -->
<svg preserveAspectRatio="none" height="253.872pt" version="1.1" viewBox="0 0 325.44 253.872" width="325.44pt" xmlns="http://www.w3.org/2000/svg" xmlns:xlink="http://www.w3.org/1999/xlink">
 <metadata>
  <rdf:RDF xmlns:cc="http://creativecommons.org/ns#" xmlns:dc="http://purl.org/dc/elements/1.1/" xmlns:rdf="http://www.w3.org/1999/02/22-rdf-syntax-ns#">
   <cc:Work>
    <dc:type rdf:resource="http://purl.org/dc/dcmitype/StillImage"/>
    <dc:date>2021-04-01T00:15:54.902273</dc:date>
    <dc:format>image/svg+xml</dc:format>
    <dc:creator>
     <cc:Agent>
      <dc:title>Matplotlib v3.3.2, https://matplotlib.org/</dc:title>
     </cc:Agent>
    </dc:creator>
   </cc:Work>
  </rdf:RDF>
 </metadata>
 <defs>
  <style type="text/css">*{stroke-linecap:butt;stroke-linejoin:round;}</style>
 </defs>
 <g id="figure_1">
  <g id="patch_1">
   <path d="M 0 253.872 
L 325.44 253.872 
L 325.44 0 
L 0 0 
z
" style="fill:none;"/>
  </g>
  <g id="axes_1">
   <g id="PolyCollection_1">
    <path clip-path="url(#pb77ed88f0d)" d="M 0.392727 237.704642 
L 0.392727 253.872 
L 12.048188 253.872 
L 12.281298 253.872 
L 14.61239 253.872 
L 24.752641 253.872 
L 31.163145 253.872 
L 32.911464 253.872 
L 36.058438 253.872 
L 36.641211 253.872 
L 48.996 253.872 
L 54.707176 253.872 
L 58.786588 253.872 
L 58.953094 253.872 
L 60.418352 253.872 
L 63.448772 253.872 
L 73.23936 253.872 
L 76.735998 253.872 
L 79.06709 253.872 
L 83.263056 253.872 
L 84.778266 253.872 
L 85.710703 253.872 
L 93.752971 253.872 
L 97.599273 253.872 
L 109.021625 253.872 
L 109.604398 253.872 
L 112.1686 253.872 
L 113.267543 253.872 
L 116.364566 253.872 
L 117.413557 253.872 
L 121.842633 253.872 
L 122.77507 253.872 
L 125.022908 253.872 
L 131.982884 253.872 
L 133.314937 253.872 
L 133.381539 253.872 
L 136.645068 253.872 
L 136.878178 253.872 
L 137.893868 253.872 
L 139.908597 253.872 
L 140.49137 253.872 
L 140.841034 253.872 
L 145.619773 253.872 
L 146.202546 253.872 
L 146.78532 253.872 
L 148.999857 253.872 
L 149.06646 253.872 
L 150.015547 253.872 
L 150.981286 253.872 
L 151.913722 253.872 
L 153.079269 253.872 
L 153.312378 253.872 
L 157.741453 253.872 
L 159.256663 253.872 
L 161.004982 253.872 
L 161.004982 253.872 
L 161.621057 253.872 
L 161.70431 253.872 
L 162.287083 253.872 
L 163.918847 253.872 
L 164.118655 253.872 
L 164.268511 253.872 
L 164.385066 253.872 
L 167.53204 253.872 
L 167.998259 253.872 
L 170.56246 253.872 
L 170.679015 253.872 
L 171.494897 253.872 
L 171.494897 253.872 
L 171.611452 253.872 
L 173.59288 253.872 
L 176.157082 253.872 
L 176.856409 253.872 
L 176.972964 253.872 
L 179.836877 253.872 
L 182.101367 253.872 
L 183.69983 253.872 
L 185.065184 253.872 
L 185.364896 253.872 
L 185.997621 253.872 
L 186.064224 253.872 
L 188.278761 253.872 
L 188.362015 253.872 
L 188.395316 253.872 
L 188.74498 253.872 
L 191.309181 253.872 
L 191.7754 253.872 
L 192.707837 253.872 
L 192.707837 253.872 
L 194.57271 253.872 
L 194.922374 253.872 
L 195.854811 253.872 
L 196.104571 253.872 
L 200.866659 253.872 
L 201.565987 253.872 
L 202.015555 253.872 
L 204.363298 253.872 
L 204.779564 253.872 
L 206.344726 253.872 
L 206.577835 253.872 
L 207.543574 253.872 
L 209.841364 253.872 
L 210.074474 253.872 
L 210.474089 253.872 
L 212.52212 253.872 
L 212.52212 253.872 
L 212.605374 253.872 
L 212.638675 253.872 
L 213.338003 253.872 
L 213.687667 253.872 
L 214.153885 253.872 
L 214.670055 253.872 
L 215.55254 253.872 
L 216.601532 253.872 
L 219.165733 253.872 
L 219.748506 253.872 
L 219.981616 253.872 
L 220.331279 253.872 
L 223.12859 253.872 
L 223.12859 253.872 
L 224.993464 253.872 
L 225.110019 253.872 
L 225.925901 253.872 
L 227.124748 253.872 
L 227.557665 253.872 
L 228.556705 253.872 
L 229.405889 253.872 
L 230.70464 253.872 
L 230.821195 253.872 
L 230.937749 253.872 
L 233.968169 253.872 
L 234.201278 253.872 
L 234.201278 253.872 
L 235.350174 253.872 
L 235.649886 253.872 
L 236.882034 253.872 
L 237.115144 253.872 
L 237.980978 253.872 
L 238.980017 253.872 
L 239.912454 253.872 
L 240.495227 253.872 
L 241.31111 253.872 
L 242.010437 253.872 
L 242.942874 253.872 
L 243.175983 253.872 
L 243.525647 253.872 
L 243.525647 253.872 
L 243.908612 253.872 
L 244.10842 253.872 
L 244.224975 253.872 
L 246.439512 253.872 
L 246.905731 253.872 
L 247.255395 253.872 
L 249.120269 253.872 
L 249.236823 253.872 
L 249.469932 253.872 
L 250.285815 253.872 
L 253.432789 253.872 
L 253.899008 253.872 
L 255.064554 253.872 
L 255.297663 253.872 
L 255.414218 253.872 
L 256.812873 253.872 
L 258.561192 253.872 
L 258.977459 253.872 
L 259.543581 253.872 
L 259.593533 253.872 
L 259.610184 253.872 
L 261.241948 253.872 
L 261.458407 253.872 
L 264.738587 253.872 
L 265.32136 253.872 
L 265.554469 253.872 
L 265.671023 253.872 
L 267.252836 253.872 
L 267.286137 253.872 
L 267.652452 253.872 
L 267.885561 253.872 
L 268.584889 253.872 
L 268.584889 253.872 
L 270.200003 253.872 
L 270.915981 253.872 
L 271.14909 253.872 
L 271.14909 253.872 
L 271.848418 253.872 
L 273.297025 253.872 
L 273.829846 253.872 
L 274.062955 253.872 
L 274.762283 253.872 
L 275.927829 253.872 
L 276.044384 253.872 
L 277.326485 253.872 
L 279.307913 253.872 
L 279.541022 253.872 
L 279.657577 253.872 
L 280.007241 253.872 
L 280.107145 253.872 
L 282.454887 253.872 
L 282.804551 253.872 
L 282.921106 253.872 
L 283.620434 253.872 
L 284.436316 253.872 
L 285.485307 253.872 
L 285.818321 253.872 
L 285.834971 253.872 
L 286.184635 253.872 
L 286.767408 253.872 
L 287.233627 253.872 
L 287.699845 253.872 
L 288.282618 253.872 
L 289.0985 253.872 
L 289.398212 253.872 
L 289.914383 253.872 
L 290.09754 253.872 
L 291.662702 253.872 
L 292.12892 253.872 
L 292.245475 253.872 
L 292.362029 253.872 
L 293.177912 253.872 
L 294.443362 253.872 
L 295.275895 253.872 
L 295.742113 253.872 
L 296.324886 253.872 
L 297.723542 253.872 
L 298.306315 253.872 
L 299.122197 253.872 
L 299.122197 253.872 
L 300.687359 253.872 
L 300.870516 253.872 
L 301.569844 253.872 
L 302.102665 253.872 
L 303.218259 253.872 
L 303.684477 253.872 
L 304.2506 253.872 
L 304.350504 253.872 
L 305.998919 253.872 
L 306.581692 253.872 
L 307.164465 253.872 
L 308.096902 253.872 
L 308.446566 253.872 
L 309.728667 253.872 
L 310.178234 253.872 
L 310.31144 253.872 
L 312.525977 253.872 
L 312.642532 253.872 
L 313.34186 253.872 
L 313.574969 253.872 
L 314.041187 253.872 
L 314.041187 253.872 
L 314.207694 253.872 
L 314.740515 253.872 
L 314.973624 253.872 
L 316.13917 253.872 
L 316.255725 253.872 
L 316.372279 253.872 
L 316.488834 253.872 
L 316.838498 253.872 
L 317.371319 253.872 
L 318.686721 253.872 
L 318.686721 253.872 
L 320.568246 253.872 
L 320.967861 253.872 
L 323.365556 253.872 
L 324.181438 253.872 
L 325.047273 253.872 
L 325.047273 60.987664 
L 325.047273 60.987664 
L 324.181438 53.260699 
L 323.365556 46.318335 
L 320.967861 51.096833 
L 320.568246 53.58146 
L 318.686721 44.618532 
L 318.686721 44.618532 
L 317.371319 43.822298 
L 316.838498 35.89087 
L 316.488834 37.414111 
L 316.372279 36.22245 
L 316.255725 43.014787 
L 316.13917 45.348428 
L 314.973624 34.650735 
L 314.740515 33.337944 
L 314.207694 34.729506 
L 314.041187 32.273752 
L 314.041187 32.273752 
L 313.574969 38.901586 
L 313.34186 38.575421 
L 312.642532 33.749641 
L 312.525977 34.704014 
L 310.31144 32.616527 
L 310.178234 35.238136 
L 309.728667 31.042139 
L 308.446566 30.740844 
L 308.096902 26.930092 
L 307.164465 27.936242 
L 306.581692 19.140097 
L 305.998919 33.156721 
L 304.350504 29.264676 
L 304.2506 28.213586 
L 303.684477 27.180485 
L 303.218259 20.229858 
L 302.102665 24.922447 
L 301.569844 12.174848 
L 300.870516 0.432 
L 300.687359 5.085506 
L 299.122197 19.041324 
L 299.122197 19.041324 
L 298.306315 19.179808 
L 297.723542 18.764566 
L 296.324886 19.868225 
L 295.742113 21.540307 
L 295.275895 17.310607 
L 294.443362 17.57458 
L 293.177912 25.556745 
L 292.362029 27.517913 
L 292.245475 26.06621 
L 292.12892 25.296536 
L 291.662702 44.537098 
L 290.09754 45.152817 
L 289.914383 46.333053 
L 289.398212 39.266997 
L 289.0985 38.811639 
L 288.282618 41.583469 
L 287.699845 37.98802 
L 287.233627 36.776954 
L 286.767408 39.540415 
L 286.184635 41.614069 
L 285.834971 39.655197 
L 285.818321 37.020955 
L 285.485307 38.821671 
L 284.436316 41.090005 
L 283.620434 41.41172 
L 282.921106 38.506776 
L 282.804551 38.727893 
L 282.454887 40.532581 
L 280.107145 41.20646 
L 280.007241 43.374188 
L 279.657577 42.384644 
L 279.541022 42.174292 
L 279.307913 22.494457 
L 277.326485 31.990927 
L 276.044384 48.280297 
L 275.927829 53.877835 
L 274.762283 54.828847 
L 274.062955 50.643894 
L 273.829846 49.840791 
L 273.297025 56.210343 
L 271.848418 57.404212 
L 271.14909 52.573534 
L 271.14909 52.573534 
L 270.915981 58.180245 
L 270.200003 59.651816 
L 268.584889 58.744304 
L 268.584889 58.744304 
L 267.885561 72.606029 
L 267.652452 70.895115 
L 267.286137 67.771693 
L 267.252836 73.026599 
L 265.671023 72.189847 
L 265.554469 72.166038 
L 265.32136 71.634535 
L 264.738587 69.584285 
L 261.458407 72.902556 
L 261.241948 76.120923 
L 259.610184 79.209271 
L 259.593533 77.485124 
L 259.543581 75.470426 
L 258.977459 75.646985 
L 258.561192 78.206334 
L 256.812873 98.652999 
L 255.414218 93.624802 
L 255.297663 108.366806 
L 255.064554 108.699768 
L 253.899008 113.524042 
L 253.432789 110.644516 
L 250.285815 108.862606 
L 249.469932 99.896924 
L 249.236823 98.767202 
L 249.120269 96.854211 
L 247.255395 89.868258 
L 246.905731 91.139781 
L 246.439512 87.843018 
L 244.224975 86.488862 
L 244.10842 86.474088 
L 243.908612 85.856882 
L 243.525647 82.66713 
L 243.525647 82.66713 
L 243.175983 80.925601 
L 242.942874 86.889718 
L 242.010437 84.893601 
L 241.31111 81.889303 
L 240.495227 83.038061 
L 239.912454 85.964586 
L 238.980017 89.522408 
L 237.980978 80.747659 
L 237.115144 82.061766 
L 236.882034 87.533191 
L 235.649886 98.801649 
L 235.350174 93.863284 
L 234.201278 108.886789 
L 234.201278 108.886789 
L 233.968169 117.830039 
L 230.937749 115.706777 
L 230.821195 112.824323 
L 230.70464 115.889915 
L 229.405889 119.63929 
L 228.556705 116.719851 
L 227.557665 125.423181 
L 227.124748 125.592132 
L 225.925901 120.269793 
L 225.110019 128.081273 
L 224.993464 122.275543 
L 223.12859 113.894824 
L 223.12859 113.894824 
L 220.331279 120.960559 
L 219.981616 112.71684 
L 219.748506 114.839131 
L 219.165733 115.422128 
L 216.601532 108.221631 
L 215.55254 107.937327 
L 214.670055 114.780583 
L 214.153885 101.914899 
L 213.687667 107.11668 
L 213.338003 105.713638 
L 212.638675 105.301214 
L 212.605374 109.999484 
L 212.52212 113.500651 
L 212.52212 113.500651 
L 210.474089 108.654556 
L 210.074474 116.336828 
L 209.841364 113.881351 
L 207.543574 121.514371 
L 206.577835 126.602425 
L 206.344726 128.775508 
L 204.779564 133.260123 
L 204.363298 133.850376 
L 202.015555 128.628473 
L 201.565987 130.175202 
L 200.866659 140.503424 
L 196.104571 144.3363 
L 195.854811 146.727326 
L 194.922374 143.292963 
L 194.57271 138.685781 
L 192.707837 137.517242 
L 192.707837 137.517242 
L 191.7754 134.954657 
L 191.309181 138.907273 
L 188.74498 134.557721 
L 188.395316 138.072884 
L 188.362015 134.431298 
L 188.278761 138.565282 
L 186.064224 137.553814 
L 185.997621 148.095279 
L 185.364896 150.733674 
L 185.065184 152.371448 
L 183.69983 154.465592 
L 182.101367 151.584541 
L 179.836877 155.741919 
L 176.972964 144.764578 
L 176.856409 156.698667 
L 176.157082 163.046881 
L 173.59288 160.097584 
L 171.611452 162.124833 
L 171.494897 165.829038 
L 171.494897 165.829038 
L 170.679015 162.942204 
L 170.56246 162.338596 
L 167.998259 161.674991 
L 167.53204 164.714327 
L 164.385066 168.972292 
L 164.268511 164.730755 
L 164.118655 166.128951 
L 163.918847 163.446838 
L 162.287083 165.407007 
L 161.70431 172.631346 
L 161.621057 169.376461 
L 161.004982 169.469956 
L 161.004982 169.469956 
L 159.256663 168.054774 
L 157.741453 171.504263 
L 153.312378 179.507965 
L 153.079269 169.205312 
L 151.913722 177.820635 
L 150.981286 171.992494 
L 150.015547 173.919204 
L 149.06646 174.920142 
L 148.999857 174.795235 
L 146.78532 176.180845 
L 146.202546 176.778819 
L 145.619773 179.036466 
L 140.841034 183.758569 
L 140.49137 178.841426 
L 139.908597 180.032681 
L 137.893868 182.118644 
L 136.878178 196.617846 
L 136.645068 195.482663 
L 133.381539 190.458563 
L 133.314937 192.213662 
L 131.982884 194.501445 
L 125.022908 194.307059 
L 122.77507 193.814996 
L 121.842633 195.130675 
L 117.413557 191.333443 
L 116.364566 194.65111 
L 113.267543 195.805322 
L 112.1686 197.068661 
L 109.604398 196.989827 
L 109.021625 201.661629 
L 97.599273 215.679501 
L 93.752971 214.933817 
L 85.710703 221.11429 
L 84.778266 220.224447 
L 83.263056 221.327431 
L 79.06709 220.345653 
L 76.735998 223.335397 
L 73.23936 223.359695 
L 63.448772 226.365349 
L 60.418352 228.160287 
L 58.953094 226.05028 
L 58.786588 223.935162 
L 54.707176 224.59706 
L 48.996 223.129223 
L 36.641211 224.343042 
L 36.058438 221.588161 
L 32.911464 215.456586 
L 31.163145 220.464879 
L 24.752641 215.746087 
L 14.61239 233.147553 
L 12.281298 232.412071 
L 12.048188 227.615594 
L 0.392727 237.704642 
z
" style="fill:#c0c0c0;"/>
   </g>
  </g>
 </g>
 <defs>
  <clipPath id="pb77ed88f0d">
   <rect height="266.112" width="357.12" x="-15.84" y="-12.24"/>
  </clipPath>
 </defs>
</svg>
