<?xml version="1.0" encoding="utf-8" standalone="no"?>
<!DOCTYPE svg PUBLIC "-//W3C//DTD SVG 1.1//EN"
  "http://www.w3.org/Graphics/SVG/1.1/DTD/svg11.dtd">
<!-- Created with matplotlib (https://matplotlib.org/) -->
<svg preserveAspectRatio="none" height="253.872pt" version="1.1" viewBox="0 0 325.44 253.872" width="325.44pt" xmlns="http://www.w3.org/2000/svg" xmlns:xlink="http://www.w3.org/1999/xlink">
 <metadata>
  <rdf:RDF xmlns:cc="http://creativecommons.org/ns#" xmlns:dc="http://purl.org/dc/elements/1.1/" xmlns:rdf="http://www.w3.org/1999/02/22-rdf-syntax-ns#">
   <cc:Work>
    <dc:type rdf:resource="http://purl.org/dc/dcmitype/StillImage"/>
    <dc:date>2021-03-31T04:34:07.576061</dc:date>
    <dc:format>image/svg+xml</dc:format>
    <dc:creator>
     <cc:Agent>
      <dc:title>Matplotlib v3.3.2, https://matplotlib.org/</dc:title>
     </cc:Agent>
    </dc:creator>
   </cc:Work>
  </rdf:RDF>
 </metadata>
 <defs>
  <style type="text/css">*{stroke-linecap:butt;stroke-linejoin:round;}</style>
 </defs>
 <g id="figure_1">
  <g id="patch_1">
   <path d="M 0 253.872 
L 325.44 253.872 
L 325.44 0 
L 0 0 
z
" style="fill:none;"/>
  </g>
  <g id="axes_1">
   <g id="PolyCollection_1">
    <path clip-path="url(#pac3e72d4e2)" d="M 0.392727 221.844586 
L 0.392727 253.872 
L 12.048188 253.872 
L 12.281298 253.872 
L 14.61239 253.872 
L 24.752641 253.872 
L 31.163145 253.872 
L 32.911464 253.872 
L 36.058438 253.872 
L 36.641211 253.872 
L 48.996 253.872 
L 54.707176 253.872 
L 58.786588 253.872 
L 58.953094 253.872 
L 60.418352 253.872 
L 63.448772 253.872 
L 73.23936 253.872 
L 76.735998 253.872 
L 79.06709 253.872 
L 83.263056 253.872 
L 84.778266 253.872 
L 85.710703 253.872 
L 93.752971 253.872 
L 97.599273 253.872 
L 109.021625 253.872 
L 109.604398 253.872 
L 112.1686 253.872 
L 113.267543 253.872 
L 116.364566 253.872 
L 117.413557 253.872 
L 121.842633 253.872 
L 122.77507 253.872 
L 125.022908 253.872 
L 131.982884 253.872 
L 133.314937 253.872 
L 133.381539 253.872 
L 136.645068 253.872 
L 136.878178 253.872 
L 137.893868 253.872 
L 139.908597 253.872 
L 140.49137 253.872 
L 140.841034 253.872 
L 145.619773 253.872 
L 146.202546 253.872 
L 146.78532 253.872 
L 148.999857 253.872 
L 149.06646 253.872 
L 150.015547 253.872 
L 150.981286 253.872 
L 151.913722 253.872 
L 153.079269 253.872 
L 153.312378 253.872 
L 157.741453 253.872 
L 159.256663 253.872 
L 161.004982 253.872 
L 161.621057 253.872 
L 161.70431 253.872 
L 162.287083 253.872 
L 163.918847 253.872 
L 164.118655 253.872 
L 164.268511 253.872 
L 164.385066 253.872 
L 167.53204 253.872 
L 167.998259 253.872 
L 170.56246 253.872 
L 170.679015 253.872 
L 171.494897 253.872 
L 171.494897 253.872 
L 171.611452 253.872 
L 173.59288 253.872 
L 176.157082 253.872 
L 176.856409 253.872 
L 176.972964 253.872 
L 179.836877 253.872 
L 182.101367 253.872 
L 183.69983 253.872 
L 185.065184 253.872 
L 185.997621 253.872 
L 186.064224 253.872 
L 188.278761 253.872 
L 188.362015 253.872 
L 188.395316 253.872 
L 188.74498 253.872 
L 191.309181 253.872 
L 191.7754 253.872 
L 192.707837 253.872 
L 192.707837 253.872 
L 194.57271 253.872 
L 194.922374 253.872 
L 195.854811 253.872 
L 196.104571 253.872 
L 200.866659 253.872 
L 201.565987 253.872 
L 202.015555 253.872 
L 204.363298 253.872 
L 204.779564 253.872 
L 206.344726 253.872 
L 206.577835 253.872 
L 207.543574 253.872 
L 209.841364 253.872 
L 210.074474 253.872 
L 210.474089 253.872 
L 212.52212 253.872 
L 212.52212 253.872 
L 212.605374 253.872 
L 212.638675 253.872 
L 213.338003 253.872 
L 213.687667 253.872 
L 214.153885 253.872 
L 214.670055 253.872 
L 215.55254 253.872 
L 216.601532 253.872 
L 219.165733 253.872 
L 219.748506 253.872 
L 219.981616 253.872 
L 220.331279 253.872 
L 223.12859 253.872 
L 223.12859 253.872 
L 224.993464 253.872 
L 225.110019 253.872 
L 225.925901 253.872 
L 227.124748 253.872 
L 227.557665 253.872 
L 228.556705 253.872 
L 229.405889 253.872 
L 230.70464 253.872 
L 230.821195 253.872 
L 230.937749 253.872 
L 234.201278 253.872 
L 234.201278 253.872 
L 235.350174 253.872 
L 235.649886 253.872 
L 236.882034 253.872 
L 237.115144 253.872 
L 237.980978 253.872 
L 238.980017 253.872 
L 239.912454 253.872 
L 240.495227 253.872 
L 241.31111 253.872 
L 242.010437 253.872 
L 242.942874 253.872 
L 243.525647 253.872 
L 243.525647 253.872 
L 243.908612 253.872 
L 244.10842 253.872 
L 244.224975 253.872 
L 246.439512 253.872 
L 246.905731 253.872 
L 247.255395 253.872 
L 249.120269 253.872 
L 249.236823 253.872 
L 249.469932 253.872 
L 250.285815 253.872 
L 253.432789 253.872 
L 253.899008 253.872 
L 255.064554 253.872 
L 255.297663 253.872 
L 255.414218 253.872 
L 256.812873 253.872 
L 258.561192 253.872 
L 258.977459 253.872 
L 259.543581 253.872 
L 259.593533 253.872 
L 259.610184 253.872 
L 261.241948 253.872 
L 261.458407 253.872 
L 264.738587 253.872 
L 265.32136 253.872 
L 265.554469 253.872 
L 265.671023 253.872 
L 267.252836 253.872 
L 267.286137 253.872 
L 267.652452 253.872 
L 267.885561 253.872 
L 268.584889 253.872 
L 268.584889 253.872 
L 270.200003 253.872 
L 270.915981 253.872 
L 271.14909 253.872 
L 271.14909 253.872 
L 271.848418 253.872 
L 273.297025 253.872 
L 273.829846 253.872 
L 274.762283 253.872 
L 275.927829 253.872 
L 276.044384 253.872 
L 277.326485 253.872 
L 279.307913 253.872 
L 279.541022 253.872 
L 279.657577 253.872 
L 280.007241 253.872 
L 280.107145 253.872 
L 282.454887 253.872 
L 282.804551 253.872 
L 282.921106 253.872 
L 283.620434 253.872 
L 284.436316 253.872 
L 285.485307 253.872 
L 285.818321 253.872 
L 285.834971 253.872 
L 286.767408 253.872 
L 287.233627 253.872 
L 287.699845 253.872 
L 288.282618 253.872 
L 289.0985 253.872 
L 289.398212 253.872 
L 289.914383 253.872 
L 290.09754 253.872 
L 291.662702 253.872 
L 292.12892 253.872 
L 292.245475 253.872 
L 292.362029 253.872 
L 293.177912 253.872 
L 294.443362 253.872 
L 295.275895 253.872 
L 295.742113 253.872 
L 296.324886 253.872 
L 297.723542 253.872 
L 298.306315 253.872 
L 299.122197 253.872 
L 299.122197 253.872 
L 300.687359 253.872 
L 300.870516 253.872 
L 301.569844 253.872 
L 303.218259 253.872 
L 303.684477 253.872 
L 304.2506 253.872 
L 304.350504 253.872 
L 305.998919 253.872 
L 306.581692 253.872 
L 307.164465 253.872 
L 308.096902 253.872 
L 308.446566 253.872 
L 309.728667 253.872 
L 310.178234 253.872 
L 310.31144 253.872 
L 312.525977 253.872 
L 312.642532 253.872 
L 313.34186 253.872 
L 313.574969 253.872 
L 314.041187 253.872 
L 314.041187 253.872 
L 314.207694 253.872 
L 314.740515 253.872 
L 316.13917 253.872 
L 316.255725 253.872 
L 316.372279 253.872 
L 316.488834 253.872 
L 316.838498 253.872 
L 318.686721 253.872 
L 318.686721 253.872 
L 320.568246 253.872 
L 320.967861 253.872 
L 323.365556 253.872 
L 324.181438 253.872 
L 325.047273 253.872 
L 325.047273 48.962932 
L 325.047273 48.962932 
L 324.181438 41.268963 
L 323.365556 34.358147 
L 320.967861 39.263285 
L 320.568246 41.771292 
L 318.686721 32.890614 
L 318.686721 32.890614 
L 316.838498 24.243849 
L 316.488834 25.786672 
L 316.372279 24.599249 
L 316.255725 31.40658 
L 316.13917 33.749207 
L 314.740515 21.792661 
L 314.207694 23.212809 
L 314.041187 20.762094 
L 314.041187 20.762094 
L 313.574969 27.422229 
L 313.34186 27.107311 
L 312.642532 22.310088 
L 312.525977 23.27159 
L 310.31144 21.292311 
L 310.178234 23.924129 
L 309.728667 19.745016 
L 308.446566 19.50759 
L 308.096902 15.709234 
L 307.164465 16.763484 
L 306.581692 7.984704 
L 305.998919 22.049428 
L 304.350504 18.234777 
L 304.2506 17.18728 
L 303.684477 16.181168 
L 303.218259 20.6761 
L 301.569844 12.315647 
L 300.870516 0.432 
L 300.687359 5.059043 
L 299.122197 18.75395 
L 299.122197 18.75395 
L 298.306315 18.746813 
L 297.723542 18.226862 
L 296.324886 19.082051 
L 295.742113 20.652238 
L 295.275895 16.333521 
L 294.443362 17.678523 
L 293.177912 24.878683 
L 292.362029 26.331371 
L 292.245475 24.804696 
L 292.12892 23.960967 
L 291.662702 42.935381 
L 290.09754 42.571412 
L 289.914383 43.638496 
L 289.398212 47.548536 
L 289.0985 42.415814 
L 288.282618 45.108144 
L 287.699845 41.448397 
L 287.233627 40.188137 
L 286.767408 42.907758 
L 285.834971 42.92757 
L 285.818321 40.28808 
L 285.485307 42.057248 
L 284.436316 44.221622 
L 283.620434 44.460536 
L 282.921106 41.480334 
L 282.804551 41.689858 
L 282.454887 43.461305 
L 280.107145 43.502924 
L 280.007241 45.665242 
L 279.657577 44.645207 
L 279.541022 44.424853 
L 279.307913 24.699066 
L 277.326485 34.043103 
L 276.044384 50.247507 
L 275.927829 55.842867 
L 274.762283 56.697968 
L 273.829846 54.772803 
L 273.297025 61.242241 
L 271.848418 62.685954 
L 271.14909 57.968605 
L 271.14909 57.968605 
L 270.915981 63.622815 
L 270.200003 65.219059 
L 268.584889 64.587092 
L 268.584889 64.587092 
L 267.885561 78.587329 
L 267.652452 76.914056 
L 267.286137 73.849198 
L 267.252836 79.11689 
L 265.671023 78.550072 
L 265.554469 78.546203 
L 265.32136 78.053931 
L 264.738587 76.100782 
L 261.458407 75.505868 
L 261.241948 78.818702 
L 259.610184 82.590664 
L 259.593533 80.871126 
L 259.543581 78.874514 
L 258.977459 74.074114 
L 258.561192 75.80684 
L 256.812873 96.763754 
L 255.414218 92.114944 
L 255.297663 106.908989 
L 255.064554 107.30676 
L 253.899008 105.03146 
L 253.432789 102.220715 
L 250.285815 100.926862 
L 249.469932 92.076257 
L 249.236823 90.981343 
L 249.120269 89.08394 
L 247.255395 82.379217 
L 246.905731 83.706948 
L 246.439512 80.478404 
L 244.224975 79.46756 
L 244.10842 79.470931 
L 243.908612 78.884033 
L 243.525647 75.74967 
L 243.525647 75.74967 
L 242.942874 80.068773 
L 242.010437 78.215286 
L 241.31111 75.315932 
L 240.495227 76.593393 
L 239.912454 79.614686 
L 238.980017 83.322622 
L 237.980978 74.691752 
L 237.115144 76.142571 
L 236.882034 81.657697 
L 235.649886 93.133367 
L 235.350174 88.235059 
L 234.201278 103.45786 
L 234.201278 103.45786 
L 230.937749 107.368597 
L 230.821195 104.486844 
L 230.70464 107.56115 
L 229.405889 111.36666 
L 228.556705 109.411901 
L 227.557665 117.231038 
L 227.124748 117.417245 
L 225.925901 112.134889 
L 225.110019 119.988983 
L 224.993464 114.180015 
L 223.12859 105.861356 
L 223.12859 105.861356 
L 220.331279 113.046635 
L 219.981616 104.805563 
L 219.748506 106.939883 
L 219.165733 107.546587 
L 216.601532 100.437245 
L 215.55254 100.193817 
L 214.670055 107.081004 
L 214.153885 93.678106 
L 213.687667 98.913981 
L 213.338003 97.529362 
L 212.638675 97.157011 
L 212.605374 101.863546 
L 212.52212 105.374266 
L 212.52212 105.374266 
L 210.474089 100.640624 
L 210.074474 108.356462 
L 209.841364 105.91122 
L 207.543574 113.688015 
L 206.577835 118.83903 
L 206.344726 121.028583 
L 204.779564 124.674957 
L 204.363298 125.273815 
L 202.015555 117.553384 
L 201.565987 119.162028 
L 200.866659 129.597236 
L 196.104571 133.358595 
L 195.854811 135.781395 
L 194.922374 132.449005 
L 194.57271 127.87559 
L 192.707837 126.918676 
L 192.707837 126.918676 
L 191.7754 124.459238 
L 191.309181 128.470479 
L 188.74498 124.408216 
L 188.395316 127.968089 
L 188.362015 124.325404 
L 188.278761 128.474475 
L 186.064224 127.714819 
L 185.997621 138.2781 
L 185.065184 142.666629 
L 183.69983 144.919687 
L 182.101367 142.217497 
L 179.836877 143.787824 
L 176.972964 132.795693 
L 176.856409 141.118509 
L 176.157082 147.566557 
L 173.59288 144.947985 
L 171.611452 147.236596 
L 171.494897 150.961005 
L 171.494897 150.961005 
L 170.679015 148.176777 
L 170.56246 147.587569 
L 167.998259 147.257769 
L 167.53204 150.362054 
L 164.385066 155.036522 
L 164.268511 150.804485 
L 164.118655 152.224124 
L 163.918847 149.564479 
L 162.287083 151.740279 
L 161.70431 159.050418 
L 161.621057 155.802015 
L 161.004982 155.976051 
L 159.256663 154.787165 
L 157.741453 158.439078 
L 153.312378 167.031679 
L 153.079269 156.745573 
L 151.913722 165.524639 
L 150.981286 159.810354 
L 150.015547 161.865716 
L 149.06646 158.975499 
L 148.999857 158.850425 
L 146.78532 160.237901 
L 146.202546 160.836681 
L 145.619773 163.09737 
L 140.841034 167.825834 
L 140.49137 162.902066 
L 139.908597 164.094927 
L 137.893868 166.1837 
L 136.878178 180.702436 
L 136.645068 179.565723 
L 133.381539 174.534854 
L 133.314937 176.292319 
L 131.982884 178.583184 
L 125.022908 178.388536 
L 122.77507 177.895809 
L 121.842633 179.213261 
L 117.413557 175.410913 
L 116.364566 178.73305 
L 113.267543 179.888817 
L 112.1686 181.153858 
L 109.604398 181.074918 
L 109.021625 185.753014 
L 97.599273 199.789771 
L 93.752971 199.043082 
L 85.710703 205.231882 
L 84.778266 204.340841 
L 83.263056 205.445311 
L 79.06709 204.46221 
L 76.735998 207.455981 
L 73.23936 207.480312 
L 63.448772 210.490015 
L 60.418352 212.287372 
L 58.953094 210.174522 
L 58.786588 208.056555 
L 54.707176 208.719344 
L 48.996 207.24953 
L 36.641211 208.464984 
L 36.058438 205.706391 
L 32.911464 199.566556 
L 31.163145 204.581597 
L 24.752641 199.856447 
L 14.61239 217.281357 
L 12.281298 216.544884 
L 12.048188 211.741945 
L 0.392727 221.844586 
z
" style="fill:#c0c0c0;"/>
   </g>
  </g>
 </g>
 <defs>
  <clipPath id="pac3e72d4e2">
   <rect height="266.112" width="357.12" x="-15.84" y="-12.24"/>
  </clipPath>
 </defs>
</svg>
