<?xml version="1.0" encoding="utf-8" standalone="no"?>
<!DOCTYPE svg PUBLIC "-//W3C//DTD SVG 1.1//EN"
  "http://www.w3.org/Graphics/SVG/1.1/DTD/svg11.dtd">
<!-- Created with matplotlib (https://matplotlib.org/) -->
<svg preserveAspectRatio="none" height="253.872pt" version="1.1" viewBox="0 0 325.44 253.872" width="325.44pt" xmlns="http://www.w3.org/2000/svg" xmlns:xlink="http://www.w3.org/1999/xlink">
 <metadata>
  <rdf:RDF xmlns:cc="http://creativecommons.org/ns#" xmlns:dc="http://purl.org/dc/elements/1.1/" xmlns:rdf="http://www.w3.org/1999/02/22-rdf-syntax-ns#">
   <cc:Work>
    <dc:type rdf:resource="http://purl.org/dc/dcmitype/StillImage"/>
    <dc:date>2021-03-31T20:48:23.060053</dc:date>
    <dc:format>image/svg+xml</dc:format>
    <dc:creator>
     <cc:Agent>
      <dc:title>Matplotlib v3.3.2, https://matplotlib.org/</dc:title>
     </cc:Agent>
    </dc:creator>
   </cc:Work>
  </rdf:RDF>
 </metadata>
 <defs>
  <style type="text/css">*{stroke-linecap:butt;stroke-linejoin:round;}</style>
 </defs>
 <g id="figure_1">
  <g id="patch_1">
   <path d="M 0 253.872 
L 325.44 253.872 
L 325.44 0 
L 0 0 
z
" style="fill:none;"/>
  </g>
  <g id="axes_1">
   <g id="PolyCollection_1">
    <path clip-path="url(#pe51d771ddd)" d="M 0.392727 237.251675 
L 0.392727 253.872 
L 12.048188 253.872 
L 12.281298 253.872 
L 14.61239 253.872 
L 24.752641 253.872 
L 31.163145 253.872 
L 32.911464 253.872 
L 36.058438 253.872 
L 36.641211 253.872 
L 48.996 253.872 
L 54.707176 253.872 
L 58.786588 253.872 
L 58.953094 253.872 
L 60.418352 253.872 
L 63.448772 253.872 
L 73.23936 253.872 
L 76.735998 253.872 
L 79.06709 253.872 
L 83.263056 253.872 
L 84.778266 253.872 
L 85.710703 253.872 
L 93.752971 253.872 
L 97.599273 253.872 
L 109.021625 253.872 
L 109.604398 253.872 
L 112.1686 253.872 
L 113.267543 253.872 
L 116.364566 253.872 
L 117.413557 253.872 
L 121.842633 253.872 
L 122.77507 253.872 
L 125.022908 253.872 
L 131.982884 253.872 
L 133.314937 253.872 
L 133.381539 253.872 
L 136.645068 253.872 
L 136.878178 253.872 
L 137.893868 253.872 
L 139.908597 253.872 
L 140.49137 253.872 
L 140.841034 253.872 
L 145.619773 253.872 
L 146.202546 253.872 
L 146.78532 253.872 
L 148.999857 253.872 
L 149.06646 253.872 
L 150.015547 253.872 
L 150.981286 253.872 
L 151.913722 253.872 
L 153.079269 253.872 
L 153.312378 253.872 
L 157.741453 253.872 
L 159.256663 253.872 
L 161.004982 253.872 
L 161.004982 253.872 
L 161.621057 253.872 
L 161.70431 253.872 
L 162.287083 253.872 
L 163.918847 253.872 
L 164.118655 253.872 
L 164.268511 253.872 
L 164.385066 253.872 
L 167.53204 253.872 
L 167.998259 253.872 
L 170.56246 253.872 
L 170.679015 253.872 
L 171.494897 253.872 
L 171.494897 253.872 
L 171.611452 253.872 
L 173.59288 253.872 
L 176.157082 253.872 
L 176.856409 253.872 
L 176.972964 253.872 
L 179.836877 253.872 
L 182.101367 253.872 
L 183.69983 253.872 
L 185.065184 253.872 
L 185.364896 253.872 
L 185.997621 253.872 
L 186.064224 253.872 
L 188.278761 253.872 
L 188.362015 253.872 
L 188.395316 253.872 
L 188.74498 253.872 
L 191.309181 253.872 
L 191.7754 253.872 
L 192.707837 253.872 
L 192.707837 253.872 
L 194.57271 253.872 
L 194.922374 253.872 
L 195.854811 253.872 
L 196.104571 253.872 
L 200.866659 253.872 
L 201.565987 253.872 
L 202.015555 253.872 
L 204.363298 253.872 
L 204.779564 253.872 
L 206.344726 253.872 
L 206.577835 253.872 
L 207.543574 253.872 
L 209.841364 253.872 
L 210.074474 253.872 
L 210.474089 253.872 
L 212.52212 253.872 
L 212.52212 253.872 
L 212.605374 253.872 
L 212.638675 253.872 
L 213.338003 253.872 
L 213.687667 253.872 
L 214.153885 253.872 
L 214.670055 253.872 
L 215.55254 253.872 
L 216.601532 253.872 
L 219.165733 253.872 
L 219.748506 253.872 
L 219.981616 253.872 
L 220.331279 253.872 
L 223.12859 253.872 
L 223.12859 253.872 
L 224.993464 253.872 
L 225.110019 253.872 
L 225.925901 253.872 
L 227.124748 253.872 
L 227.557665 253.872 
L 228.556705 253.872 
L 229.405889 253.872 
L 230.70464 253.872 
L 230.821195 253.872 
L 230.937749 253.872 
L 233.968169 253.872 
L 234.201278 253.872 
L 234.201278 253.872 
L 235.350174 253.872 
L 235.649886 253.872 
L 236.882034 253.872 
L 237.115144 253.872 
L 237.980978 253.872 
L 238.980017 253.872 
L 239.912454 253.872 
L 240.495227 253.872 
L 241.31111 253.872 
L 242.010437 253.872 
L 242.942874 253.872 
L 243.175983 253.872 
L 243.525647 253.872 
L 243.525647 253.872 
L 243.908612 253.872 
L 244.10842 253.872 
L 244.224975 253.872 
L 246.439512 253.872 
L 246.905731 253.872 
L 247.255395 253.872 
L 249.120269 253.872 
L 249.236823 253.872 
L 249.469932 253.872 
L 250.285815 253.872 
L 253.432789 253.872 
L 253.899008 253.872 
L 255.064554 253.872 
L 255.297663 253.872 
L 255.414218 253.872 
L 256.812873 253.872 
L 258.561192 253.872 
L 258.977459 253.872 
L 259.543581 253.872 
L 259.593533 253.872 
L 259.610184 253.872 
L 261.241948 253.872 
L 261.458407 253.872 
L 264.738587 253.872 
L 265.32136 253.872 
L 265.554469 253.872 
L 265.671023 253.872 
L 267.252836 253.872 
L 267.286137 253.872 
L 267.652452 253.872 
L 267.885561 253.872 
L 268.584889 253.872 
L 268.584889 253.872 
L 270.200003 253.872 
L 270.915981 253.872 
L 271.14909 253.872 
L 271.14909 253.872 
L 271.848418 253.872 
L 273.297025 253.872 
L 273.829846 253.872 
L 274.062955 253.872 
L 274.762283 253.872 
L 275.927829 253.872 
L 276.044384 253.872 
L 277.326485 253.872 
L 279.307913 253.872 
L 279.541022 253.872 
L 279.657577 253.872 
L 280.007241 253.872 
L 280.107145 253.872 
L 282.454887 253.872 
L 282.804551 253.872 
L 282.921106 253.872 
L 283.620434 253.872 
L 284.436316 253.872 
L 285.485307 253.872 
L 285.818321 253.872 
L 285.834971 253.872 
L 286.184635 253.872 
L 286.767408 253.872 
L 287.233627 253.872 
L 287.699845 253.872 
L 288.282618 253.872 
L 289.0985 253.872 
L 289.398212 253.872 
L 289.914383 253.872 
L 290.09754 253.872 
L 291.662702 253.872 
L 292.12892 253.872 
L 292.245475 253.872 
L 292.362029 253.872 
L 293.177912 253.872 
L 294.443362 253.872 
L 295.275895 253.872 
L 295.742113 253.872 
L 296.324886 253.872 
L 297.723542 253.872 
L 298.306315 253.872 
L 299.122197 253.872 
L 299.122197 253.872 
L 300.687359 253.872 
L 300.870516 253.872 
L 301.569844 253.872 
L 303.218259 253.872 
L 303.684477 253.872 
L 304.2506 253.872 
L 304.350504 253.872 
L 305.998919 253.872 
L 306.581692 253.872 
L 307.164465 253.872 
L 308.096902 253.872 
L 308.446566 253.872 
L 309.728667 253.872 
L 310.178234 253.872 
L 310.31144 253.872 
L 312.525977 253.872 
L 312.642532 253.872 
L 313.34186 253.872 
L 313.574969 253.872 
L 314.041187 253.872 
L 314.041187 253.872 
L 314.207694 253.872 
L 314.740515 253.872 
L 314.973624 253.872 
L 316.13917 253.872 
L 316.255725 253.872 
L 316.372279 253.872 
L 316.488834 253.872 
L 316.838498 253.872 
L 318.686721 253.872 
L 318.686721 253.872 
L 320.568246 253.872 
L 320.967861 253.872 
L 323.365556 253.872 
L 324.181438 253.872 
L 325.047273 253.872 
L 325.047273 55.046011 
L 325.047273 55.046011 
L 324.181438 46.975558 
L 323.365556 39.719016 
L 320.967861 44.279709 
L 320.568246 46.775333 
L 318.686721 37.28531 
L 318.686721 37.28531 
L 316.838498 28.04203 
L 316.488834 29.556661 
L 316.372279 28.314516 
L 316.255725 35.280061 
L 316.13917 37.661988 
L 314.973624 26.493614 
L 314.740515 25.109851 
L 314.207694 26.462249 
L 314.041187 23.913268 
L 314.041187 23.913268 
L 313.574969 30.658413 
L 313.34186 30.288917 
L 312.642532 25.225356 
L 312.525977 26.189372 
L 310.31144 23.718578 
L 310.178234 26.394099 
L 309.728667 22.014599 
L 308.446566 21.516808 
L 308.096902 17.548001 
L 307.164465 18.445573 
L 306.581692 9.317504 
L 305.998919 23.641358 
L 304.350504 19.398482 
L 304.2506 18.30329 
L 303.684477 17.158207 
L 303.218259 21.68048 
L 301.569844 12.770728 
L 300.870516 0.432 
L 300.687359 5.145989 
L 299.122197 18.895522 
L 299.122197 18.895522 
L 298.306315 18.726532 
L 297.723542 18.07726 
L 296.324886 18.678091 
L 295.742113 20.174625 
L 295.275895 15.648503 
L 294.443362 15.602163 
L 293.177912 23.325052 
L 292.362029 25.029812 
L 292.245475 23.492958 
L 292.12892 22.65724 
L 291.662702 42.258957 
L 290.09754 42.294635 
L 289.914383 43.438043 
L 289.398212 47.587219 
L 289.0985 42.396176 
L 288.282618 45.373595 
L 287.699845 41.768788 
L 287.233627 40.596893 
L 286.767408 43.510882 
L 286.184635 45.734012 
L 285.834971 43.775085 
L 285.818321 41.069649 
L 285.485307 42.973032 
L 284.436316 45.469399 
L 283.620434 45.928056 
L 282.921106 43.051377 
L 282.804551 43.296964 
L 282.454887 45.207041 
L 280.107145 45.863783 
L 280.007241 48.109821 
L 279.657577 47.154067 
L 279.541022 46.958327 
L 279.307913 26.768123 
L 277.326485 36.879242 
L 276.044384 53.850552 
L 275.927829 59.625423 
L 274.762283 60.808129 
L 274.062955 56.628953 
L 273.829846 55.844359 
L 273.297025 62.486106 
L 271.848418 63.968271 
L 271.14909 59.125278 
L 271.14909 59.125278 
L 270.915981 64.930085 
L 270.200003 66.568844 
L 268.584889 65.920044 
L 268.584889 65.920044 
L 267.885561 80.293168 
L 267.652452 78.575329 
L 267.286137 75.42884 
L 267.252836 80.836833 
L 265.671023 80.254919 
L 265.554469 80.250947 
L 265.32136 79.745563 
L 264.738587 77.740394 
L 261.458407 81.7287 
L 261.241948 85.075317 
L 259.610184 88.537261 
L 259.593533 86.767737 
L 259.543581 84.70538 
L 258.977459 79.634713 
L 258.561192 81.308875 
L 256.812873 102.38416 
L 255.414218 97.259691 
L 255.297663 112.418445 
L 255.064554 112.76817 
L 253.899008 117.764779 
L 253.432789 114.819444 
L 250.285815 113.087972 
L 249.469932 103.897115 
L 249.236823 102.743176 
L 249.120269 100.780304 
L 247.255395 93.658097 
L 246.905731 94.976396 
L 246.439512 91.602135 
L 244.224975 90.280664 
L 244.10842 90.269193 
L 243.908612 89.641067 
L 243.525647 86.37416 
L 243.525647 86.37416 
L 243.175983 84.594989 
L 242.942874 90.73364 
L 242.010437 88.711333 
L 241.31111 85.645165 
L 240.495227 86.852128 
L 239.912454 89.879233 
L 238.980017 93.566473 
L 237.980978 84.577739 
L 237.115144 85.956277 
L 236.882034 91.588431 
L 235.649886 103.211897 
L 235.350174 98.144731 
L 234.201278 113.625796 
L 234.201278 113.625796 
L 233.968169 122.827047 
L 230.937749 118.790439 
L 230.821195 115.831933 
L 230.70464 118.988121 
L 229.405889 122.894988 
L 228.556705 120.888166 
L 227.557665 128.91556 
L 227.124748 129.106726 
L 225.925901 123.683678 
L 225.110019 131.746961 
L 224.993464 125.783276 
L 223.12859 117.243055 
L 223.12859 117.243055 
L 220.331279 124.619709 
L 219.981616 116.159142 
L 219.748506 118.350307 
L 219.165733 118.97317 
L 216.601532 111.674476 
L 215.55254 111.424565 
L 214.670055 118.495186 
L 214.153885 105.289882 
L 213.687667 110.65623 
L 213.338003 109.227997 
L 212.638675 108.832257 
L 212.605374 113.663506 
L 212.52212 117.266128 
L 212.52212 117.266128 
L 210.474089 112.366957 
L 210.074474 120.280603 
L 209.841364 117.765743 
L 207.543574 125.705405 
L 206.577835 130.97501 
L 206.344726 133.21839 
L 204.779564 136.931732 
L 204.363298 137.538522 
L 202.015555 129.567238 
L 201.565987 131.210066 
L 200.866659 141.909738 
L 196.104571 146.408921 
L 195.854811 148.896251 
L 194.922374 145.475105 
L 194.57271 140.77988 
L 192.707837 139.797479 
L 192.707837 139.797479 
L 191.7754 137.272536 
L 191.309181 141.390613 
L 188.74498 137.220154 
L 188.395316 140.874843 
L 188.362015 137.135137 
L 188.278761 141.394716 
L 186.064224 140.614827 
L 185.997621 151.459454 
L 185.364896 154.246031 
L 185.065184 155.964868 
L 183.69983 158.277934 
L 182.101367 155.503773 
L 179.836877 157.115925 
L 176.972964 145.831026 
L 176.856409 154.375515 
L 176.157082 160.995302 
L 173.59288 158.306987 
L 171.611452 160.656553 
L 171.494897 164.480159 
L 171.494897 164.480159 
L 170.679015 161.621775 
L 170.56246 161.016874 
L 167.998259 160.67829 
L 167.53204 163.865255 
L 164.385066 168.664224 
L 164.268511 164.31947 
L 164.118655 165.77692 
L 163.918847 163.046437 
L 162.287083 165.280188 
L 161.70431 172.785028 
L 161.621057 169.450106 
L 161.004982 169.628777 
L 161.004982 169.628777 
L 159.256663 168.408226 
L 157.741453 172.157405 
L 153.312378 180.978864 
L 153.079269 170.418795 
L 151.913722 179.431685 
L 150.981286 173.565205 
L 150.015547 175.675309 
L 149.06646 172.708114 
L 148.999857 172.579708 
L 146.78532 174.004139 
L 146.202546 174.618866 
L 145.619773 176.939767 
L 140.841034 181.794171 
L 140.49137 176.739262 
L 139.908597 177.963893 
L 137.893868 180.1083 
L 136.878178 195.013732 
L 136.645068 193.846744 
L 133.381539 188.681882 
L 133.314937 190.486154 
L 131.982884 192.838035 
L 125.022908 192.638203 
L 122.77507 192.132353 
L 121.842633 193.484894 
L 117.413557 189.581273 
L 116.364566 192.991893 
L 113.267543 194.178443 
L 112.1686 195.477178 
L 109.604398 195.396135 
L 109.021625 200.198829 
L 97.599273 214.609446 
L 93.752971 213.842869 
L 85.710703 220.196503 
L 84.778266 219.28173 
L 83.263056 220.415616 
L 79.06709 219.406331 
L 76.735998 222.47984 
L 73.23936 222.504819 
L 63.448772 225.594683 
L 60.418352 227.439911 
L 58.953094 225.270787 
L 58.786588 223.096409 
L 54.707176 223.776851 
L 48.996 222.26789 
L 36.641211 223.515717 
L 36.058438 220.683651 
L 32.911464 214.380285 
L 31.163145 219.528898 
L 24.752641 214.677897 
L 14.61239 232.566907 
L 12.281298 231.810819 
L 12.048188 226.879957 
L 0.392727 237.251675 
z
" style="fill:#c0c0c0;"/>
   </g>
  </g>
 </g>
 <defs>
  <clipPath id="pe51d771ddd">
   <rect height="266.112" width="357.12" x="-15.84" y="-12.24"/>
  </clipPath>
 </defs>
</svg>
