<?xml version="1.0" encoding="utf-8" standalone="no"?>
<!DOCTYPE svg PUBLIC "-//W3C//DTD SVG 1.1//EN"
  "http://www.w3.org/Graphics/SVG/1.1/DTD/svg11.dtd">
<!-- Created with matplotlib (https://matplotlib.org/) -->
<svg preserveAspectRatio="none" height="253.872pt" version="1.1" viewBox="0 0 325.44 253.872" width="325.44pt" xmlns="http://www.w3.org/2000/svg" xmlns:xlink="http://www.w3.org/1999/xlink">
 <metadata>
  <rdf:RDF xmlns:cc="http://creativecommons.org/ns#" xmlns:dc="http://purl.org/dc/elements/1.1/" xmlns:rdf="http://www.w3.org/1999/02/22-rdf-syntax-ns#">
   <cc:Work>
    <dc:type rdf:resource="http://purl.org/dc/dcmitype/StillImage"/>
    <dc:date>2021-08-10T20:04:23.886326</dc:date>
    <dc:format>image/svg+xml</dc:format>
    <dc:creator>
     <cc:Agent>
      <dc:title>Matplotlib v3.3.2, https://matplotlib.org/</dc:title>
     </cc:Agent>
    </dc:creator>
   </cc:Work>
  </rdf:RDF>
 </metadata>
 <defs>
  <style type="text/css">*{stroke-linecap:butt;stroke-linejoin:round;}</style>
 </defs>
 <g id="figure_1">
  <g id="patch_1">
   <path d="M 0 253.872 
L 325.44 253.872 
L 325.44 0 
L 0 0 
z
" style="fill:none;"/>
  </g>
  <g id="axes_1">
   <g id="PolyCollection_1">
    <path clip-path="url(#pb58ad409ab)" d="M 0.392727 244.62129 
L 0.392727 253.872 
L 11.979256 253.872 
L 11.979256 253.872 
L 12.210987 253.872 
L 14.528293 253.872 
L 24.608573 253.872 
L 30.981164 253.872 
L 30.981164 253.872 
L 32.719143 253.872 
L 35.847506 253.872 
L 36.426833 253.872 
L 48.708554 253.872 
L 54.385953 253.872 
L 54.385953 253.872 
L 58.441238 253.872 
L 58.60676 253.872 
L 60.063352 253.872 
L 63.07585 253.872 
L 72.808534 253.872 
L 76.284493 253.872 
L 78.601799 253.872 
L 78.601799 253.872 
L 82.772949 253.872 
L 84.279198 253.872 
L 85.20612 253.872 
L 93.200825 253.872 
L 93.200825 253.872 
L 97.02438 253.872 
L 108.379179 253.872 
L 108.958505 253.872 
L 111.507541 253.872 
L 112.599986 253.872 
L 115.678692 253.872 
L 116.721479 253.872 
L 116.721479 253.872 
L 121.124361 253.872 
L 122.051283 253.872 
L 124.285828 253.872 
L 131.204641 253.872 
L 132.528816 253.872 
L 132.595024 253.872 
L 135.839252 253.872 
L 136.070983 253.872 
L 137.080666 253.872 
L 139.083481 253.872 
L 139.662807 253.872 
L 140.010403 253.872 
L 144.76088 253.872 
L 145.340206 253.872 
L 145.919533 253.872 
L 148.120973 253.872 
L 148.187182 253.872 
L 149.130657 253.872 
L 150.090683 253.872 
L 151.017606 253.872 
L 152.176259 253.872 
L 152.407989 253.872 
L 152.407989 253.872 
L 152.407989 253.872 
L 156.81087 253.872 
L 158.317119 253.872 
L 160.055098 253.872 
L 160.055098 253.872 
L 160.667529 253.872 
L 160.75029 253.872 
L 161.329617 253.872 
L 162.951731 253.872 
L 163.150357 253.872 
L 163.299326 253.872 
L 163.415192 253.872 
L 166.543555 253.872 
L 167.007016 253.872 
L 169.556052 253.872 
L 169.671917 253.872 
L 170.482974 253.872 
L 170.482974 253.872 
L 170.59884 253.872 
L 172.56855 253.872 
L 175.117586 253.872 
L 175.812778 253.872 
L 175.812778 253.872 
L 175.928643 253.872 
L 178.775619 253.872 
L 181.026716 253.872 
L 182.615726 253.872 
L 182.615726 253.872 
L 183.973005 253.872 
L 184.270944 253.872 
L 184.899927 253.872 
L 184.966136 253.872 
L 185.313732 253.872 
L 187.167576 253.872 
L 187.250337 253.872 
L 187.283442 253.872 
L 187.631038 253.872 
L 190.180074 253.872 
L 190.643535 253.872 
L 191.570457 253.872 
L 191.570457 253.872 
L 193.424302 253.872 
L 193.771898 253.872 
L 194.69882 253.872 
L 194.947103 253.872 
L 199.681028 253.872 
L 200.37622 253.872 
L 200.823129 253.872 
L 200.823129 253.872 
L 202.809391 253.872 
L 203.156987 253.872 
L 203.570791 253.872 
L 205.126697 253.872 
L 205.358427 253.872 
L 206.318454 253.872 
L 208.602655 253.872 
L 208.834386 253.872 
L 209.231638 253.872 
L 211.267557 253.872 
L 211.267557 253.872 
L 211.350318 253.872 
L 211.383422 253.872 
L 211.846883 253.872 
L 212.078614 253.872 
L 212.42621 253.872 
L 212.889671 253.872 
L 213.402789 253.872 
L 214.280055 253.872 
L 215.322842 253.872 
L 217.871879 253.872 
L 218.451205 253.872 
L 218.682936 253.872 
L 219.030531 253.872 
L 219.030531 253.872 
L 221.811298 253.872 
L 221.811298 253.872 
L 223.665143 253.872 
L 223.781008 253.872 
L 224.592065 253.872 
L 225.783823 253.872 
L 226.214179 253.872 
L 227.207311 253.872 
L 228.051472 253.872 
L 229.342542 253.872 
L 229.458408 253.872 
L 229.574273 253.872 
L 232.58677 253.872 
L 232.818501 253.872 
L 232.818501 253.872 
L 233.960602 253.872 
L 234.258541 253.872 
L 235.367537 253.872 
L 235.483403 253.872 
L 235.715133 253.872 
L 236.575847 253.872 
L 237.568978 253.872 
L 237.568978 253.872 
L 238.4959 253.872 
L 239.075227 253.872 
L 239.886284 253.872 
L 240.581476 253.872 
L 241.508398 253.872 
L 241.740128 253.872 
L 242.087724 253.872 
L 242.087724 253.872 
L 242.468425 253.872 
L 242.667051 253.872 
L 242.782916 253.872 
L 244.984357 253.872 
L 245.447818 253.872 
L 245.795414 253.872 
L 247.649258 253.872 
L 247.765124 253.872 
L 247.996854 253.872 
L 248.807911 253.872 
L 250.777621 253.872 
L 251.936274 253.872 
L 252.399735 253.872 
L 253.558388 253.872 
L 253.790119 253.872 
L 253.905984 253.872 
L 255.296368 253.872 
L 257.034347 253.872 
L 257.448152 253.872 
L 258.010926 253.872 
L 258.060582 253.872 
L 258.077135 253.872 
L 259.699249 253.872 
L 259.914427 253.872 
L 263.175207 253.872 
L 263.754534 253.872 
L 263.986264 253.872 
L 264.10213 253.872 
L 265.674587 253.872 
L 265.707692 253.872 
L 266.07184 253.872 
L 266.30357 253.872 
L 266.998762 253.872 
L 266.998762 253.872 
L 268.604324 253.872 
L 269.316068 253.872 
L 269.547798 253.872 
L 269.547798 253.872 
L 270.24299 253.872 
L 271.68303 253.872 
L 272.2127 253.872 
L 272.2127 253.872 
L 272.444431 253.872 
L 273.139622 253.872 
L 274.298275 253.872 
L 274.414141 253.872 
L 275.688659 253.872 
L 277.658369 253.872 
L 277.890099 253.872 
L 278.005965 253.872 
L 278.35356 253.872 
L 278.452874 253.872 
L 280.786732 253.872 
L 281.134327 253.872 
L 281.250193 253.872 
L 281.945384 253.872 
L 282.756442 253.872 
L 283.799229 253.872 
L 284.130273 253.872 
L 284.146825 253.872 
L 284.494421 253.872 
L 285.073747 253.872 
L 285.537208 253.872 
L 286.00067 253.872 
L 286.579996 253.872 
L 287.391053 253.872 
L 287.688992 253.872 
L 288.20211 253.872 
L 288.384184 253.872 
L 289.94009 253.872 
L 290.403551 253.872 
L 290.519416 253.872 
L 290.635281 253.872 
L 291.446338 253.872 
L 292.704304 253.872 
L 293.531914 253.872 
L 293.995375 253.872 
L 294.574701 253.872 
L 295.965085 253.872 
L 296.428546 253.872 
L 296.544411 253.872 
L 297.355468 253.872 
L 297.355468 253.872 
L 298.911374 253.872 
L 299.093448 253.872 
L 299.788639 253.872 
L 300.318309 253.872 
L 301.427306 253.872 
L 301.890767 253.872 
L 302.453541 253.872 
L 302.552854 253.872 
L 304.19152 253.872 
L 304.770847 253.872 
L 305.350173 253.872 
L 306.277096 253.872 
L 306.624691 253.872 
L 307.89921 253.872 
L 308.346119 253.872 
L 308.478536 253.872 
L 310.679977 253.872 
L 310.795842 253.872 
L 311.491034 253.872 
L 311.722764 253.872 
L 312.186225 253.872 
L 312.351747 253.872 
L 312.881417 253.872 
L 313.113148 253.872 
L 314.271801 253.872 
L 314.387666 253.872 
L 314.503531 253.872 
L 314.619397 253.872 
L 314.966992 253.872 
L 315.496662 253.872 
L 316.804285 253.872 
L 316.804285 253.872 
L 318.674682 253.872 
L 319.071934 253.872 
L 321.455449 253.872 
L 322.266506 253.872 
L 323.127219 253.872 
L 324.352081 253.872 
L 325.047273 253.872 
L 325.047273 253.872 
L 325.047273 80.790634 
L 325.047273 80.790634 
L 325.047273 80.790634 
L 324.352081 77.494915 
L 323.127219 70.959789 
L 322.266506 61.218433 
L 321.455449 52.473596 
L 319.071934 59.067685 
L 318.674682 62.331771 
L 316.804285 51.202664 
L 316.804285 51.202664 
L 315.496662 50.437078 
L 314.966992 40.368808 
L 314.619397 42.390246 
L 314.503531 40.884625 
L 314.387666 49.618212 
L 314.271801 52.63367 
L 313.113148 39.140685 
L 312.881417 37.502364 
L 312.351747 39.390512 
L 312.186225 38.105144 
L 311.722764 44.863989 
L 311.491034 44.490982 
L 310.795842 38.437949 
L 310.679977 41.763363 
L 308.478536 39.460885 
L 308.346119 42.82047 
L 307.89921 37.430675 
L 306.624691 37.019831 
L 306.277096 32.126005 
L 305.350173 33.398581 
L 304.770847 31.806577 
L 304.19152 44.271866 
L 302.552854 38.678889 
L 302.453541 37.294444 
L 301.890767 35.76293 
L 301.427306 26.678849 
L 300.318309 32.289818 
L 299.788639 15.747012 
L 299.093448 0.432 
L 298.911374 6.333123 
L 297.355468 23.659808 
L 297.355468 23.659808 
L 296.544411 23.539668 
L 296.428546 25.028985 
L 295.965085 22.79446 
L 294.574701 23.699451 
L 293.995375 25.631167 
L 293.531914 20.036582 
L 292.704304 20.071299 
L 291.446338 29.846352 
L 290.635281 32.063741 
L 290.519416 30.159447 
L 290.403551 29.129831 
L 289.94009 53.635061 
L 288.384184 53.853522 
L 288.20211 55.300294 
L 287.688992 46.049949 
L 287.391053 45.356593 
L 286.579996 48.61363 
L 286.00067 43.789915 
L 285.537208 42.066625 
L 285.073747 45.440533 
L 284.494421 47.887251 
L 284.146825 45.24746 
L 284.130273 41.863058 
L 283.799229 44.050888 
L 282.756442 46.577138 
L 281.945384 46.691984 
L 281.250193 42.711285 
L 281.134327 42.952325 
L 280.786732 45.139173 
L 278.452874 45.146631 
L 278.35356 47.890211 
L 278.005965 46.493551 
L 277.890099 46.181247 
L 277.658369 20.857458 
L 275.688659 32.31327 
L 274.414141 52.735955 
L 274.298275 59.872072 
L 273.139622 56.843851 
L 272.444431 51.168982 
L 272.2127 51.003875 
L 272.2127 51.003875 
L 271.68303 57.970642 
L 270.24299 58.864137 
L 269.547798 52.361148 
L 269.547798 52.361148 
L 269.316068 59.448962 
L 268.604324 61.021065 
L 266.998762 59.146322 
L 266.998762 59.146322 
L 266.30357 76.615706 
L 266.07184 74.318915 
L 265.707692 70.151999 
L 265.674587 76.876579 
L 264.10213 75.107242 
L 263.986264 75.025406 
L 263.754534 74.24117 
L 263.175207 71.355286 
L 259.914427 74.167091 
L 259.699249 78.199263 
L 258.077135 81.441747 
L 258.060582 79.223257 
L 258.010926 76.617489 
L 257.448152 76.594743 
L 257.034347 79.693801 
L 255.296368 105.146436 
L 253.905984 98.082329 
L 253.790119 103.628385 
L 253.558388 104.099282 
L 252.399735 110.505677 
L 251.936274 106.900553 
L 250.777621 118.916072 
L 248.807911 105.207767 
L 247.996854 93.863184 
L 247.765124 92.458239 
L 247.649258 90.026835 
L 245.795414 81.418671 
L 245.447818 83.115184 
L 244.984357 78.974968 
L 242.782916 77.655221 
L 242.667051 77.658216 
L 242.468425 76.904286 
L 242.087724 72.885636 
L 242.087724 72.885636 
L 241.740128 70.718012 
L 241.508398 78.410676 
L 240.581476 76.026264 
L 239.886284 72.30501 
L 239.075227 73.931852 
L 238.4959 77.794735 
L 237.568978 75.054499 
L 237.568978 75.054499 
L 236.575847 71.467825 
L 235.715133 73.316126 
L 235.483403 80.376928 
L 235.367537 72.171203 
L 234.258541 83.872234 
L 233.960602 77.393584 
L 232.818501 96.103488 
L 232.818501 96.103488 
L 232.58677 111.783246 
L 229.574273 109.291261 
L 229.458408 105.498707 
L 229.342542 109.334319 
L 228.051472 113.074113 
L 227.207311 108.631295 
L 226.214179 118.97098 
L 225.783823 118.831436 
L 224.592065 111.019267 
L 223.781008 120.365891 
L 223.665143 112.824334 
L 221.811298 100.541871 
L 221.811298 100.541871 
L 219.030531 125.115059 
L 219.030531 125.115059 
L 218.682936 106.938388 
L 218.451205 109.669201 
L 217.871879 110.439493 
L 215.322842 101.304619 
L 214.280055 100.980722 
L 213.402789 109.791216 
L 212.889671 93.311446 
L 212.42621 100.000649 
L 212.078614 98.214866 
L 211.846883 91.142386 
L 211.383422 97.713088 
L 211.350318 103.739752 
L 211.267557 108.233111 
L 211.267557 108.233111 
L 209.231638 102.097645 
L 208.834386 111.965408 
L 208.602655 108.82539 
L 206.318454 118.703658 
L 205.358427 125.266396 
L 205.126697 128.062349 
L 203.570791 133.874462 
L 203.156987 134.647597 
L 202.809391 142.787697 
L 200.823129 123.67436 
L 200.823129 123.67436 
L 200.37622 130.38589 
L 199.681028 143.386206 
L 194.947103 146.631508 
L 194.69882 149.610318 
L 193.771898 144.878826 
L 193.424302 138.847631 
L 191.570457 136.694942 
L 191.570457 136.694942 
L 190.643535 133.081476 
L 190.180074 137.987053 
L 187.631038 126.123745 
L 187.283442 130.667589 
L 187.250337 126.000784 
L 187.167576 131.310994 
L 185.313732 132.185891 
L 184.966136 130.240343 
L 184.899927 143.766226 
L 184.270944 147.214598 
L 183.973005 149.345644 
L 182.615726 157.056556 
L 182.615726 157.056556 
L 181.026716 153.951588 
L 178.775619 160.11895 
L 175.928643 144.567569 
L 175.812778 155.59835 
L 175.812778 155.59835 
L 175.117586 163.755764 
L 172.56855 160.032224 
L 170.59884 162.677564 
L 170.482974 167.430755 
L 170.482974 167.430755 
L 169.671917 163.747209 
L 169.556052 162.975776 
L 167.007016 160.554117 
L 166.543555 164.514388 
L 163.415192 170.396453 
L 163.299326 164.972433 
L 163.150357 166.785636 
L 162.951731 163.372672 
L 161.329617 166.10501 
L 160.75029 175.448011 
L 160.667529 171.284879 
L 160.055098 171.487274 
L 160.055098 171.487274 
L 158.317119 169.906445 
L 156.81087 174.533179 
L 152.407989 179.528883 
L 152.407989 179.528883 
L 152.407989 179.528883 
L 152.176259 166.296501 
L 151.017606 177.247463 
L 150.090683 169.694752 
L 149.130657 172.084578 
L 148.187182 173.28853 
L 148.120973 173.122747 
L 145.919533 174.71374 
L 145.340206 175.431672 
L 144.76088 178.27808 
L 140.010403 183.932637 
L 139.662807 177.597199 
L 139.083481 179.075995 
L 137.080666 181.581949 
L 136.070983 200.091374 
L 135.839252 198.61596 
L 132.595024 191.89861 
L 132.528816 194.143871 
L 131.204641 196.965993 
L 124.285828 196.132112 
L 122.051283 195.312255 
L 121.124361 196.921252 
L 116.721479 189.692105 
L 116.721479 189.692105 
L 115.678692 195.846108 
L 112.599986 197.066219 
L 111.507541 198.594106 
L 108.958505 198.277629 
L 108.379179 204.220108 
L 97.02438 222.902414 
L 93.200825 221.946099 
L 93.200825 221.946099 
L 85.20612 229.872346 
L 84.279198 228.731154 
L 82.772949 230.145693 
L 78.601799 228.886596 
L 78.601799 228.886596 
L 76.284493 232.72084 
L 72.808534 231.863432 
L 63.07585 236.187514 
L 60.063352 238.634763 
L 58.60676 235.999005 
L 58.441238 233.294422 
L 54.385953 233.170886 
L 54.385953 233.170886 
L 48.708554 230.667861 
L 36.426833 232.654483 
L 35.847506 229.141721 
L 32.719143 214.064829 
L 30.981164 227.052184 
L 30.981164 227.052184 
L 24.608573 217.003183 
L 14.528293 242.510486 
L 12.210987 242.300707 
L 11.979256 230.208434 
L 11.979256 230.208434 
L 0.392727 244.62129 
z
" style="fill:#606060;"/>
   </g>
  </g>
 </g>
 <defs>
  <clipPath id="pb58ad409ab">
   <rect height="266.112" width="357.12" x="-15.84" y="-12.24"/>
  </clipPath>
 </defs>
</svg>
