<?xml version="1.0" encoding="utf-8"?>
<!-- Generator: Adobe Illustrator 18.0.0, SVG Export Plug-In . SVG Version: 6.00 Build 0)  -->
<!DOCTYPE svg PUBLIC "-//W3C//DTD SVG 1.1//EN" "http://www.w3.org/Graphics/SVG/1.1/DTD/svg11.dtd">
<svg version="1.1" id="Layer_2" xmlns="http://www.w3.org/2000/svg" xmlns:xlink="http://www.w3.org/1999/xlink" x="0px" y="0px"
	 viewBox="0 0.00003 1899.20996 2763.78003" enable-background="new 0 0.00003 1899.20996 2763.78003" xml:space="preserve">
<rect x="-737.34955" y="-430.58215" width="3405.34058" height="3336.33374"/>
<g>
	<path fill="#FFFFFF" d="M1892.36047,2343.34424c-6.01257,7.05933-15.74683-14.01807-25.01965-14.01807
		c-9.27173,0-9.27173,17.00781-18.54346,17.00781c-9.27087,0-9.27087-17.00781-18.54187-17.00781
		c-9.27075,0-9.27075,17.00781-18.54138,17.00781c-9.27087,0-9.27087-17.00781-18.54175-17.00781
		c-9.27148,0-9.27148,17.00781-18.54297,17.00781c-9.27271,0-9.27271-17.00781-18.54541-17.00781
		c-9.27209,0-9.27209,17.00781-18.54407,17.00781c-9.27124,0-9.27124-17.00781-18.54248-17.00781
		c-9.271,0-9.271,17.00781-18.54187,17.00781c-9.27112,0-9.27112-17.00781-18.54224-17.00781
		c-9.27197,0-9.27197,17.00781-18.54382,17.00781c-9.27307,0-9.27307-17.00781-18.54602-17.00781
		c-9.27185,0-9.27185,17.00781-18.5437,17.00781c-9.27124,0-9.27124-17.00781-18.54248-17.00781
		s-9.27124,17.00781-18.54248,17.00781c-9.27173,0-9.27173-17.00781-18.54346-17.00781
		c-9.27295,0-9.27295,17.00781-18.5459,17.00781c-9.27209,0-9.27209-17.00781-18.54431-17.00781
		c-9.27136,0-9.27136,17.00781-18.54285,17.00781c-9.27136,0-9.27136-17.00781-18.54285-17.00781
		c-9.27197,0-9.27197,17.00781-18.54407,17.00781c-9.27319,0-9.27319-17.00781-18.54626-17.00781
		c-9.27197,0-9.27197,17.00781-18.54395,17.00781c-9.27148,0-9.27148-17.00781-18.54297-17.00781
		c-9.27185,0-9.27185,17.00781-18.5437,17.00781c-9.27295,0-9.27295-17.00781-18.5459-17.00781
		c-9.27234,0-9.27234,17.00781-18.54468,17.00781c-9.27173,0-9.27173-17.00781-18.54346-17.00781
		c-9.27185,0-9.27185,17.00781-18.54382,17.00781c-9.27295,0-9.27295-17.00781-18.5459-17.00781
		c-9.27246,0-9.27246,17.00781-18.5448,17.00781c-9.27185,0-9.27185-17.00781-18.5437-17.00781
		c-9.27222,0-9.27222,17.00781-18.54443,17.00781c-9.27344,0-9.27344-17.00781-18.54675-17.00781
		c-9.27222,0-9.27222,17.00781-18.54443,17.00781c-9.27197,0-9.27197-17.00781-18.54407-17.00781
		c-9.27295,0-9.27295,17.00781-18.5459,17.00781c-9.27258,0-9.27258-17.00781-18.54517-17.00781
		c-9.27209,0-9.27209,17.00781-18.54419,17.00781c-9.27283,0-9.27283-17.00781-18.54565-17.00781
		s-9.27283,17.00781-18.54553,17.00781c-9.27222,0-9.27234-17.00781-18.54456-17.00781
		c-9.27295,0-9.27295,17.00781-18.5459,17.00781c-9.27271,0-9.27271-17.00781-18.54541-17.00781
		c-9.27246,0-9.27246,17.00781-18.5448,17.00781c-9.2735,0-9.2735-17.00781-18.547-17.00781
		c-9.27252,0-9.27252,17.00781-18.5451,17.00781c-9.27277,0-9.27277-17.00781-18.54553-17.00781
		c-9.27307,0-9.27307,17.00781-18.54608,17.00781c-9.27258,0-9.27258-17.00781-18.54523-17.00781
		c-9.27356,0-9.27356,17.00781-18.54718,17.00781c-9.27264,0-9.27264-17.00781-18.54523-17.00781
		c-9.27356,0-9.27356,17.00781-18.54706,17.00781c-9.27271,0-9.27271-17.00781-18.54547-17.00781
		c-9.27344,0-9.27344,17.00781-18.54688,17.00781c-9.27283,0-9.27283-17.00781-18.54565-17.00781
		c-9.27362,0-9.27362,17.00781-18.54724,17.00781c-9.271,0-9.271-17.00781-18.54199-17.00781
		c-9.27026,0-9.27026,17.00781-18.54047,17.00781c-9.27197,0-9.27197-17.00781-18.54395-17.00781
		c-9.27234,0-9.27234,17.00781-18.54474,17.00781c-9.27069,0-9.27069-17.00781-18.54144-17.00781
		c-9.27191,0-9.27191,17.00781-18.54388,17.00781c-9.27271,0-9.27271-17.00781-18.54547-17.00781
		c-9.27118,0-9.27118,17.00781-18.5423,17.00781c-9.27295,0-9.27295-17.00781-18.5459-17.00781
		c-9.27222,0-9.27222,17.00781-18.54437,17.00781c-9.27191,0-9.27191-17.00781-18.54388-17.00781
		c-9.27356,0-9.27356,17.00781-18.54706,17.00781c-9.27197,0-9.27197-17.00781-18.54395-17.00781
		c-9.27435,0-9.27435,17.00781-18.54871,17.00781c-9.27228,0-9.27228-17.00781-18.54449-17.00781
		c-9.27429,0-9.27429,17.00781-18.54852,17.00781c-9.27261,0-9.27261-17.00781-18.54526-17.00781
		c-9.27347,0-9.27347,17.00781-18.54694,17.00781c-9.27368,0-9.27368-17.00781-18.54736-17.00781
		c-9.27298,0-9.27298,17.00781-18.54599,17.00781c-9.27383,0-9.27383-17.00781-18.54767-17.00781
		c-9.27475,0-9.27475,17.00781-18.54953,17.00781c-9.2739,0-9.2739-17.00781-18.54779-17.00781
		c-9.27368,0-9.27368,17.00781-18.54739,17.00781c-9.27377,0-9.27377-17.00781-18.54758-17.00781
		c-9.27399,0-9.27399,17.00781-18.54797,17.00781c-9.27438,0-9.27438-17.00781-18.54877-17.00781
		c-9.27533,0-9.27533,17.00781-18.55063,17.00781c-9.27444,0-9.27444-17.00781-18.54889-17.00781
		c-9.27496,0-9.27496,17.00781-18.54991,17.00781c-9.27289,0-9.27289-17.00781-18.54576-17.00781
		c-9.27307,0-9.27307,17.00781-18.54613,17.00781c-9.27412,0-9.27412-17.00781-18.54825-17.00781
		c-9.27557,0-9.27557,17.00781-18.55115,17.00781c-9.27402,0-9.27402-17.00781-18.54802-17.00781
		c-9.27495,0-9.27495,17.00781-18.5499,17.00781c-9.27519,0-9.27519-17.00781-18.5504-17.00781
		c-9.27631,0-9.27631,17.00781-18.55261,17.00781c-9.27377,0-9.27377-17.00781-18.54754-17.00781
		c-9.27699,0-9.27699,17.00781-18.55398,17.00781c-9.27745,0-9.27745-17.00781-18.5549-17.00781
		c-9.27872,0-9.27872,17.00781-18.55745,17.00781s-6.06621-6.96094-12.08651-14.02148
		c-7.0605-8.28027-14.97488-5.36426-14.97488-16.24609c0-10.88062,17.00787-10.88062,17.00787-21.76123
		c0-10.87964-17.00787-10.87964-17.00787-21.75928c0-10.87939,17.00787-10.87939,17.00787-21.75879
		c0-10.87964-17.00787-10.87964-17.00787-21.75903c0-10.88037,17.00787-10.88037,17.00787-21.76074
		c0-10.88184-17.00787-10.88184-17.00787-21.76343c0-10.88086,17.00787-10.88086,17.00787-21.76196
		c0-10.87988-17.00787-10.87988-17.00787-21.76001c0-10.87964,17.00787-10.87964,17.00787-21.75928
		c0-10.87988-17.00787-10.87988-17.00787-21.75977c0-10.88086,17.00787-10.88086,17.00787-21.76147
		c0-10.88208-17.00787-10.88208-17.00787-21.7644c0-10.88062,17.00787-10.88062,17.00787-21.76135
		c0-10.88-17.00787-10.88-17.00787-21.76001s17.00787-10.88,17.00787-21.76001c0-10.88062-17.00787-10.88062-17.00787-21.76123
		c0-10.88196,17.00787-10.88196,17.00787-21.76404c0-10.88098-17.00787-10.88098-17.00787-21.76208
		c0-10.88025,17.00787-10.88025,17.00787-21.7605c0-10.88013-17.00787-10.88013-17.00787-21.76038
		c0-10.88098,17.00787-10.88098,17.00787-21.76196c0-10.8822-17.00787-10.8822-17.00787-21.7644
		c0-10.88086,17.00787-10.88086,17.00787-21.76172c0-10.88037-17.00787-10.88037-17.00787-21.76074
		c0-10.88074,17.00787-10.88074,17.00787-21.76147c0-10.88196-17.00787-10.88196-17.00787-21.76392
		c0-10.88135,17.00787-10.88135,17.00787-21.76257c0-10.88062-17.00787-10.88062-17.00787-21.76123
		c0-10.88074,17.00787-10.88074,17.00787-21.7616c0-10.88208-17.00787-10.88208-17.00787-21.76404
		c0-10.88147,17.00787-10.88147,17.00787-21.76282c0-10.88074-17.00787-10.88074-17.00787-21.76147
		c0-10.8811,17.00787-10.8811,17.00787-21.76233c0-10.88245-17.00787-10.88245-17.00787-21.76501
		c0-10.8811,17.00787-10.8811,17.00787-21.76221c0-10.88098-17.00787-10.88098-17.00787-21.76196
		c0-10.88196,17.00787-10.88196,17.00787-21.76404c0-10.88159-17.00787-10.88159-17.00787-21.76318
		c0-10.88098,17.00787-10.88098,17.00787-21.76208c0-10.88184-17.00787-10.88184-17.00787-21.76367
		s17.00787-10.88184,17.00787-21.76367c0-10.8811-17.00787-10.8811-17.00787-21.76233
		c0-10.88208,17.00787-10.88208,17.00787-21.76404c0-10.88184-17.00787-10.88184-17.00787-21.76355
		c0-10.88135,17.00787-10.88135,17.00787-21.76282c0-10.88257-17.00787-10.88257-17.00787-21.76526
		c0-10.88147,17.00787-10.88147,17.00787-21.76306c0-10.88184-17.00787-10.88184-17.00787-21.76367
		c0-10.88208,17.00787-10.88208,17.00787-21.76416c0-10.88171-17.00787-10.88171-17.00787-21.76331
		c0-10.88269,17.00787-10.88269,17.00787-21.7655c0-10.88171-17.00787-10.88171-17.00787-21.76331
		c0-10.88269,17.00787-10.88269,17.00787-21.76538c0-10.88171-17.00787-10.88171-17.00787-21.76355
		c0-10.88257,17.00787-10.88257,17.00787-21.76514c0-10.88184-17.00787-10.88184-17.00787-21.76379
		c0-10.88281,17.00787-10.88281,17.00787-21.76563c0-10.88196-17.00787-10.88196-17.00787-21.76379
		c0-10.88281,17.00787-10.88281,17.00787-21.7655c0-10.88208-17.00787-10.88208-17.00787-21.76422
		c0-10.88226,17.00787-10.88226,17.00787-21.76453c0-10.88275-17.00787-10.88275-17.00787-21.76556
		c0-10.88214,17.00787-10.88214,17.00787-21.76434c0-10.88141-17.00787-10.88141-17.00787-21.76282
		c0-10.87958,17.00787-10.87958,17.00787-21.75916c0-10.88165-17.00787-10.88165-17.00787-21.76331
		c0-10.8808,17.00787-10.8808,17.00787-21.76154c0-10.88049-17.00787-10.88049-17.00787-21.76099
		c0-10.88239,17.00787-10.88239,17.00787-21.76471c0-10.88049-17.00787-10.88049-17.00787-21.76105
		c0-10.8833,17.00787-10.8833,17.00787-21.76666c0-10.8808-17.00787-10.8808-17.00787-21.76166
		c0-10.88318,17.00787-10.88318,17.00787-21.76642c0-10.88123-17.00787-10.88123-17.00787-21.76251
		c0-10.88232,17.00787-10.88232,17.00787-21.76459c0-10.88257-17.00787-10.88257-17.00787-21.76508
		c0-10.88171,17.00787-10.88171,17.00787-21.76343c0-10.88269-17.00787-10.88269-17.00787-21.76544
		c0-10.88379,17.00787-10.88379,17.00787-21.76758c0-10.88275-17.00787-10.88275-17.00787-21.7655
		c0-10.88257,17.00787-10.88257,17.00787-21.76514c0-10.88263-17.00787-10.88263-17.00787-21.76532
		c0-10.88287,17.00787-10.88287,17.00787-21.76575c0-10.88336-17.00787-10.88336-17.00787-21.76669
		c0-10.88446,17.00787-10.88446,17.00787-21.76892c0-10.88339-17.00787-10.88339-17.00787-21.76682
		c0-10.88403,17.00787-10.88403,17.00787-21.76807c0-10.88361-17.00787-10.88361-17.00787-21.76721
		c0-10.88385,17.00787-10.88385,17.00787-21.76767c0-10.88269-17.00787-10.88266-17.00787-21.76535
		c0-10.8844,17.00787-10.8844,17.00787-21.76877c0-10.88254-17.00787-10.88254-17.00787-21.76508
		c0-10.88364,17.00787-10.88364,17.00787-21.7673c0-10.88391-17.00787-10.88391-17.00787-21.76785
		c0-10.88525,17.00787-10.88525,17.00787-21.77049c0-10.88541-17.00787-10.88541-17.00787-21.77081
		c0-10.88525,17.00787-10.88525,17.00787-21.77051c0-10.88579-17.00787-10.88579-17.00787-21.77158
		c0-10.8873,17.00787-10.8873,17.00787-21.77458c0-10.88728-22.03732-19.00015-14.97794-27.28859
		c6.01259-7.05938,15.74687,14.01794,25.01975,14.01794c9.27169,0,9.27169-17.00787,18.54339-17.00787
		c9.27096,0,9.27096,17.00787,18.54191,17.00787c9.27068,0,9.27068-17.00787,18.54136-17.00787
		c9.27087,0,9.27087,17.00787,18.54173,17.00787c9.27152,0,9.27152-17.00787,18.54305-17.00787
		c9.27267,0,9.27267,17.00787,18.54533,17.00787c9.27206,0,9.27206-17.00787,18.54414-17.00787
		c9.27124,0,9.27124,17.00787,18.54247,17.00787c9.27094,0,9.27094-17.00787,18.54185-17.00787
		c9.27113,0,9.27113,17.00787,18.54227,17.00787c9.27188,0,9.27188-17.00787,18.54376-17.00787
		c9.27306,0,9.27306,17.00787,18.5461,17.00787c9.27187,0,9.27187-17.00787,18.54372-17.00787
		c9.27121,0,9.27121,17.00787,18.54245,17.00787c9.27121,0,9.27121-17.00787,18.54239-17.00787
		c9.27176,0,9.27176,17.00787,18.54355,17.00787c9.27295,0,9.27295-17.00787,18.5459-17.00787
		c9.27209,0,9.27209,17.00787,18.54422,17.00787c9.27142,0,9.27142-17.00787,18.54288-17.00787
		c9.27139,0,9.27139,17.00787,18.54282,17.00787c9.27206,0,9.27206-17.00787,18.54413-17.00787
		c9.27313,0,9.27313,17.00787,18.54626,17.00787c9.27194,0,9.27194-17.00787,18.54391-17.00787
		c9.27151,0,9.27151,17.00787,18.54303,17.00787c9.27185,0,9.27185-17.00787,18.5437-17.00787
		c9.27292,0,9.27292,17.00787,18.54581,17.00787c9.27234,0,9.27234-17.00787,18.54474-17.00787
		c9.27167,0,9.27167,17.00787,18.5434,17.00787c9.27191,0,9.27191-17.00787,18.54388-17.00787
		c9.27295,0,9.27295,17.00787,18.5459,17.00787c9.2724,0,9.2724-17.00787,18.5448-17.00787
		c9.27185,0,9.27185,17.00787,18.5437,17.00787c9.27228,0,9.27228-17.00787,18.54449-17.00787
		c9.27332,0,9.27332,17.00787,18.54669,17.00787c9.27216,0,9.27216-17.00787,18.54437-17.00787
		c9.27203,0,9.27203,17.00787,18.54413,17.00787c9.27295,0,9.27295-17.00787,18.5459-17.00787
		c9.27258,0,9.27258,17.00787,18.54517,17.00787c9.27209,0,9.27209-17.00787,18.54425-17.00787
		c9.27277,0,9.27277,17.00787,18.54559,17.00787c9.27277,0,9.27277-17.00787,18.54553-17.00787
		c9.27228,0,9.27228,17.00787,18.54449,17.00787c9.27301,0,9.27301-17.00787,18.54596-17.00787
		c9.27271,0,9.27271,17.00787,18.54547,17.00787c9.2724,0,9.2724-17.00787,18.5448-17.00787
		c9.27344,0,9.27344,17.00787,18.54694,17.00787c9.27252,0,9.27252-17.00787,18.54504-17.00787
		c9.27283,0,9.27283,17.00787,18.54559,17.00787c9.27307,0,9.27307-17.00787,18.54608-17.00787
		c9.27258,0,9.27258,17.00787,18.54517,17.00787c9.27362,0,9.27362-17.00787,18.54724-17.00787
		c9.27258,0,9.27258,17.00787,18.54523,17.00787c9.2735,0,9.2735-17.00787,18.547-17.00787
		c9.27277,0,9.27277,17.00787,18.54553,17.00787c9.27344,0,9.27344-17.00787,18.54688-17.00787
		c9.27283,0,9.27283,17.00787,18.54565,17.00787c9.27356,0,9.27356-17.00787,18.54724-17.00787
		c9.271,0,9.271,17.00787,18.54199,17.00787c9.27026,0,9.27026-17.00787,18.54053-17.00787
		c9.27197,0,9.27197,17.00787,18.54382,17.00787c9.27246,0,9.27246-17.00787,18.5448-17.00787
		c9.27075,0,9.27075,17.00787,18.54138,17.00787c9.27197,0,9.27197-17.00787,18.54395-17.00787
		c9.27271,0,9.27271,17.00787,18.54541,17.00787c9.27124,0,9.27124-17.00787,18.54236-17.00787
		c9.27295,0,9.27295,17.00787,18.5459,17.00787c9.27222,0,9.27222-17.00787,18.54431-17.00787
		c9.27197,0,9.27197,17.00787,18.54395,17.00787c9.27356,0,9.27356-17.00787,18.54712-17.00787
		c9.27197,0,9.27197,17.00787,18.54395,17.00787c9.27429,0,9.27429-17.00787,18.54871-17.00787
		c9.27222,0,9.27222,17.00787,18.54443,17.00787c9.27429,0,9.27429-17.00787,18.54846-17.00787
		c9.27271,0,9.27271,17.00787,18.54529,17.00787c9.27344,0,9.27344-17.00787,18.547-17.00787
		c9.27368,0,9.27368,17.00787,18.54736,17.00787c9.27295,0,9.27295-17.00787,18.5459-17.00787
		c9.27393,0,9.27393,17.00787,18.54773,17.00787c9.27478,0,9.27478-17.00787,18.54956-17.00787
		c9.2738,0,9.2738,17.00787,18.54773,17.00787c9.27368,0,9.27368-17.00787,18.54736-17.00787
		c9.2738,0,9.2738,17.00787,18.54761,17.00787c9.27405,0,9.27405-17.00787,18.54797-17.00787
		c9.27441,0,9.27441,17.00787,18.54883,17.00787c9.27527,0,9.27527-17.00787,18.55066-17.00787
		c9.27441,0,9.27441,17.00787,18.54883,17.00787c9.2749,0,9.2749-17.00787,18.54993-17.00787
		c9.27283,0,9.27283,17.00787,18.54578,17.00787c9.27307,0,9.27307-17.00787,18.54614-17.00787
		c9.27405,0,9.27405,17.00787,18.54822,17.00787c9.27551,0,9.27551-17.00787,18.55115-17.00787
		c9.27405,0,9.27405,17.00787,18.54797,17.00787c9.27502,0,9.27502-17.00787,18.54993-17.00787
		c9.27515,0,9.27515,17.00787,18.55042,17.00787c9.27625,0,9.27625-17.00787,18.55261-17.00787
		c9.27368,0,9.27368,17.00787,18.54749,17.00787c9.27698,0,9.27698-17.00787,18.55396-17.00787
		c9.27747,0,9.27747,17.00787,18.55493,17.00787c9.27869,0,9.27869-17.00787,18.5575-17.00787
		c9.27869,0,6.06616,6.96103,12.08643,14.02153c7.06055,8.28044,14.97498,5.36433,14.97498,16.24628
		c0,10.88054-17.00793,10.88054-17.00793,21.76108c0,10.87968,17.00793,10.87968,17.00793,21.75937
		c0,10.87935-17.00793,10.87935-17.00793,21.7587c0,10.87958,17.00793,10.87958,17.00793,21.75916
		c0,10.88034-17.00793,10.88034-17.00793,21.76068c0,10.88168,17.00793,10.88168,17.00793,21.76337
		c0,10.88098-17.00793,10.88098-17.00793,21.76196c0,10.88,17.00793,10.88,17.00793,21.76004
		c0,10.87964-17.00793,10.87964-17.00793,21.75928c0,10.87988,17.00793,10.87988,17.00793,21.75977
		c0,10.88077-17.00793,10.88077-17.00793,21.76154c0,10.88214,17.00793,10.88214,17.00793,21.76425
		c0,10.88074-17.00793,10.88074-17.00793,21.76147c0,10.88,17.00793,10.88,17.00793,21.76001
		c0,10.87994-17.00793,10.87994-17.00793,21.75992c0,10.88065,17.00793,10.88065,17.00793,21.76126
		c0,10.88199-17.00793,10.88199-17.00793,21.76401c0,10.88104,17.00793,10.88104,17.00793,21.76208
		c0,10.88025-17.00793,10.88025-17.00793,21.7605s17.00793,10.88025,17.00793,21.76044
		c0,10.88098-17.00793,10.88098-17.00793,21.76196c0,10.8822,17.00793,10.8822,17.00793,21.76447
		c0,10.88086-17.00793,10.88086-17.00793,21.76172c0,10.88031,17.00793,10.88031,17.00793,21.76068
		c0,10.88074-17.00793,10.88074-17.00793,21.76141c0,10.88202,17.00793,10.88202,17.00793,21.76398
		c0,10.88129-17.00793,10.88129-17.00793,21.76263c0,10.88055,17.00793,10.88055,17.00793,21.76111
		c0,10.88086-17.00793,10.88086-17.00793,21.76166c0,10.88202,17.00793,10.88202,17.00793,21.7641
		c0,10.88135-17.00793,10.88135-17.00793,21.76276c0,10.88074,17.00793,10.88074,17.00793,21.76141
		c0,10.88116-17.00793,10.88116-17.00793,21.76239c0,10.88245,17.00793,10.88245,17.00793,21.76495
		c0,10.8811-17.00793,10.8811-17.00793,21.76227c0,10.88098,17.00793,10.88098,17.00793,21.7619
		c0,10.88202-17.00793,10.88202-17.00793,21.76404c0,10.88159,17.00793,10.88159,17.00793,21.76318
		c0,10.88104-17.00793,10.88104-17.00793,21.76208c0,10.8819,17.00793,10.8819,17.00793,21.76367
		c0,10.88184-17.00793,10.88184-17.00793,21.76367c0,10.88123,17.00793,10.88123,17.00793,21.76245
		c0,10.88196-17.00793,10.88196-17.00793,21.76404c0,10.88171,17.00793,10.88171,17.00793,21.76355
		c0,10.88135-17.00793,10.88135-17.00793,21.7627c0,10.88269,17.00793,10.88269,17.00793,21.76526
		c0,10.88159-17.00793,10.88159-17.00793,21.76306c0,10.88184,17.00793,10.88184,17.00793,21.76367
		c0,10.8822-17.00793,10.8822-17.00793,21.76428c0,10.88159,17.00793,10.88159,17.00793,21.76318
		c0,10.88281-17.00793,10.88281-17.00793,21.76563c0,10.88159,17.00793,10.88159,17.00793,21.76318
		c0,10.88269-17.00793,10.88269-17.00793,21.76538c0,10.88184,17.00793,10.88184,17.00793,21.76355
		c0,10.88257-17.00793,10.88257-17.00793,21.76526c0,10.88184,17.00793,10.88184,17.00793,21.76367
		c0,10.88281-17.00793,10.88281-17.00793,21.76563c0,10.88196,17.00793,10.88196,17.00793,21.76392
		c0,10.88269-17.00793,10.88269-17.00793,21.76538c0,10.8822,17.00793,10.8822,17.00793,21.76428
		c0,10.8822-17.00793,10.8822-17.00793,21.76453c0,10.88281,17.00793,10.88281,17.00793,21.7655
		c0,10.8822-17.00793,10.8822-17.00793,21.7644c0,10.88135,17.00793,10.88135,17.00793,21.76282
		c0,10.87952-17.00793,10.87952-17.00793,21.75916c0,10.88171,17.00793,10.88171,17.00793,21.76331
		c0,10.88074-17.00793,10.88074-17.00793,21.76147c0,10.88049,17.00793,10.88049,17.00793,21.76099
		c0,10.88245-17.00793,10.88245-17.00793,21.76477c0,10.88049,17.00793,10.88049,17.00793,21.76099
		c0,10.88342-17.00793,10.88342-17.00793,21.76672c0,10.88086,17.00793,10.88086,17.00793,21.7616
		c0,10.8833-17.00793,10.8833-17.00793,21.76648c0,10.88123,17.00793,10.88123,17.00793,21.76257
		c0,10.8822-17.00793,10.8822-17.00793,21.76453c0,10.88257,17.00793,10.88257,17.00793,21.76501
		c0,10.88171-17.00793,10.88171-17.00793,21.76343c0,10.88281,17.00793,10.88281,17.00793,21.7655
		c0,10.88379-17.00793,10.88379-17.00793,21.76758c0,10.88269,17.00793,10.88269,17.00793,21.7655
		c0,10.88257-17.00793,10.88257-17.00793,21.76514c0,10.88269,17.00793,10.88269,17.00793,21.76526
		c0,10.88293-17.00793,10.88293-17.00793,21.76575c0,10.88342,17.00793,10.88342,17.00793,21.76672
		c0,10.88452-17.00793,10.88452-17.00793,21.76892c0,10.88342,17.00793,10.88342,17.00793,21.76685
		c0,10.88403-17.00793,10.88403-17.00793,21.76807c0,10.88354,17.00793,10.88354,17.00793,21.76733
		s-17.00793,10.88379-17.00793,21.76758c0,10.88257,17.00793,10.88257,17.00793,21.76538
		c0,10.88428-17.00793,10.88428-17.00793,21.7688c0,10.88232,17.00793,10.88232,17.00793,21.76489
		c0,10.88379-17.00793,10.88379-17.00793,21.76733c0,10.88403,17.00793,10.88403,17.00793,21.76782
		c0,10.88525-17.00793,10.88525-17.00793,21.77051c0,10.8855,17.00793,10.8855,17.00793,21.771
		c0,10.88525-17.00793,10.88525-17.00793,21.77051c0,10.88574,17.00793,10.88574,17.00793,21.77148
		c0,10.88721-20.00452,14.12036-16.57495,24.45337C1882.4939,2332.82983,1899.41992,2335.05566,1892.36047,2343.34424z"/>
</g>
</svg>
